G04 #@! TF.GenerationSoftware,KiCad,Pcbnew,5.1.7+dfsg1-1*
G04 #@! TF.CreationDate,2021-01-19T22:48:43+01:00*
G04 #@! TF.ProjectId,Nixie_proj,4e697869-655f-4707-926f-6a2e6b696361,rev?*
G04 #@! TF.SameCoordinates,Original*
G04 #@! TF.FileFunction,Paste,Top*
G04 #@! TF.FilePolarity,Positive*
%FSLAX46Y46*%
G04 Gerber Fmt 4.6, Leading zero omitted, Abs format (unit mm)*
G04 Created by KiCad (PCBNEW 5.1.7+dfsg1-1) date 2021-01-19 22:48:43*
%MOMM*%
%LPD*%
G01*
G04 APERTURE LIST*
G04 #@! TA.AperFunction,Profile*
%ADD10C,0.100000*%
G04 #@! TD*
%ADD11R,1.000000X1.400000*%
%ADD12R,1.200000X1.400000*%
%ADD13R,5.400000X4.900000*%
%ADD14R,2.000000X0.700000*%
%ADD15R,0.500000X2.300000*%
%ADD16R,2.000000X2.500000*%
%ADD17R,2.500000X1.100000*%
%ADD18R,1.100000X2.500000*%
%ADD19R,1.000000X1.500000*%
%ADD20R,0.700000X2.000000*%
%ADD21R,2.300000X3.500000*%
%ADD22R,3.500000X2.300000*%
%ADD23R,1.750000X0.450000*%
%ADD24R,2.200000X1.200000*%
%ADD25R,3.050000X2.750000*%
%ADD26R,0.800000X0.900000*%
%ADD27R,0.600000X2.000000*%
%ADD28R,1.450000X0.450000*%
G04 APERTURE END LIST*
D10*
X146250000Y-50000000D02*
X170000000Y-50000000D01*
X146249999Y-49999999D02*
G75*
G02*
X133750001Y-49999999I-6249999J7499999D01*
G01*
X175000000Y-55000000D02*
G75*
G03*
X170000000Y-50000000I-5000000J0D01*
G01*
X170000000Y-115000000D02*
G75*
G03*
X175000000Y-110000000I0J5000000D01*
G01*
X35000000Y-110000000D02*
G75*
G03*
X40000000Y-115000000I5000000J0D01*
G01*
X40000000Y-50000000D02*
G75*
G03*
X35000000Y-55000000I0J-5000000D01*
G01*
X170000000Y-115000000D02*
X40000000Y-115000000D01*
X175000000Y-55000000D02*
X175000000Y-110000000D01*
X40000000Y-50000000D02*
X133750000Y-50000000D01*
X35000000Y-110000000D02*
X35000000Y-55000000D01*
D11*
X143450000Y-62100000D03*
X141550000Y-62100000D03*
X141550000Y-59900000D03*
D12*
X143270000Y-59900000D03*
D13*
X43750000Y-73300000D03*
X43750000Y-61500000D03*
G36*
G01*
X59950001Y-65050000D02*
X59049999Y-65050000D01*
G75*
G02*
X58800000Y-64800001I0J249999D01*
G01*
X58800000Y-64149999D01*
G75*
G02*
X59049999Y-63900000I249999J0D01*
G01*
X59950001Y-63900000D01*
G75*
G02*
X60200000Y-64149999I0J-249999D01*
G01*
X60200000Y-64800001D01*
G75*
G02*
X59950001Y-65050000I-249999J0D01*
G01*
G37*
G36*
G01*
X59950001Y-67100000D02*
X59049999Y-67100000D01*
G75*
G02*
X58800000Y-66850001I0J249999D01*
G01*
X58800000Y-66199999D01*
G75*
G02*
X59049999Y-65950000I249999J0D01*
G01*
X59950001Y-65950000D01*
G75*
G02*
X60200000Y-66199999I0J-249999D01*
G01*
X60200000Y-66850001D01*
G75*
G02*
X59950001Y-67100000I-249999J0D01*
G01*
G37*
G36*
G01*
X62050000Y-64049999D02*
X62050000Y-64950001D01*
G75*
G02*
X61800001Y-65200000I-249999J0D01*
G01*
X61149999Y-65200000D01*
G75*
G02*
X60900000Y-64950001I0J249999D01*
G01*
X60900000Y-64049999D01*
G75*
G02*
X61149999Y-63800000I249999J0D01*
G01*
X61800001Y-63800000D01*
G75*
G02*
X62050000Y-64049999I0J-249999D01*
G01*
G37*
G36*
G01*
X64100000Y-64049999D02*
X64100000Y-64950001D01*
G75*
G02*
X63850001Y-65200000I-249999J0D01*
G01*
X63199999Y-65200000D01*
G75*
G02*
X62950000Y-64950001I0J249999D01*
G01*
X62950000Y-64049999D01*
G75*
G02*
X63199999Y-63800000I249999J0D01*
G01*
X63850001Y-63800000D01*
G75*
G02*
X64100000Y-64049999I0J-249999D01*
G01*
G37*
G36*
G01*
X66812500Y-84275000D02*
X65212500Y-84275000D01*
G75*
G02*
X65075000Y-84137500I0J137500D01*
G01*
X65075000Y-83862500D01*
G75*
G02*
X65212500Y-83725000I137500J0D01*
G01*
X66812500Y-83725000D01*
G75*
G02*
X66950000Y-83862500I0J-137500D01*
G01*
X66950000Y-84137500D01*
G75*
G02*
X66812500Y-84275000I-137500J0D01*
G01*
G37*
G36*
G01*
X66812500Y-83475000D02*
X65212500Y-83475000D01*
G75*
G02*
X65075000Y-83337500I0J137500D01*
G01*
X65075000Y-83062500D01*
G75*
G02*
X65212500Y-82925000I137500J0D01*
G01*
X66812500Y-82925000D01*
G75*
G02*
X66950000Y-83062500I0J-137500D01*
G01*
X66950000Y-83337500D01*
G75*
G02*
X66812500Y-83475000I-137500J0D01*
G01*
G37*
G36*
G01*
X66812500Y-82675000D02*
X65212500Y-82675000D01*
G75*
G02*
X65075000Y-82537500I0J137500D01*
G01*
X65075000Y-82262500D01*
G75*
G02*
X65212500Y-82125000I137500J0D01*
G01*
X66812500Y-82125000D01*
G75*
G02*
X66950000Y-82262500I0J-137500D01*
G01*
X66950000Y-82537500D01*
G75*
G02*
X66812500Y-82675000I-137500J0D01*
G01*
G37*
G36*
G01*
X66812500Y-81875000D02*
X65212500Y-81875000D01*
G75*
G02*
X65075000Y-81737500I0J137500D01*
G01*
X65075000Y-81462500D01*
G75*
G02*
X65212500Y-81325000I137500J0D01*
G01*
X66812500Y-81325000D01*
G75*
G02*
X66950000Y-81462500I0J-137500D01*
G01*
X66950000Y-81737500D01*
G75*
G02*
X66812500Y-81875000I-137500J0D01*
G01*
G37*
G36*
G01*
X66812500Y-81075000D02*
X65212500Y-81075000D01*
G75*
G02*
X65075000Y-80937500I0J137500D01*
G01*
X65075000Y-80662500D01*
G75*
G02*
X65212500Y-80525000I137500J0D01*
G01*
X66812500Y-80525000D01*
G75*
G02*
X66950000Y-80662500I0J-137500D01*
G01*
X66950000Y-80937500D01*
G75*
G02*
X66812500Y-81075000I-137500J0D01*
G01*
G37*
G36*
G01*
X66812500Y-80275000D02*
X65212500Y-80275000D01*
G75*
G02*
X65075000Y-80137500I0J137500D01*
G01*
X65075000Y-79862500D01*
G75*
G02*
X65212500Y-79725000I137500J0D01*
G01*
X66812500Y-79725000D01*
G75*
G02*
X66950000Y-79862500I0J-137500D01*
G01*
X66950000Y-80137500D01*
G75*
G02*
X66812500Y-80275000I-137500J0D01*
G01*
G37*
G36*
G01*
X66812500Y-79475000D02*
X65212500Y-79475000D01*
G75*
G02*
X65075000Y-79337500I0J137500D01*
G01*
X65075000Y-79062500D01*
G75*
G02*
X65212500Y-78925000I137500J0D01*
G01*
X66812500Y-78925000D01*
G75*
G02*
X66950000Y-79062500I0J-137500D01*
G01*
X66950000Y-79337500D01*
G75*
G02*
X66812500Y-79475000I-137500J0D01*
G01*
G37*
G36*
G01*
X66812500Y-78675000D02*
X65212500Y-78675000D01*
G75*
G02*
X65075000Y-78537500I0J137500D01*
G01*
X65075000Y-78262500D01*
G75*
G02*
X65212500Y-78125000I137500J0D01*
G01*
X66812500Y-78125000D01*
G75*
G02*
X66950000Y-78262500I0J-137500D01*
G01*
X66950000Y-78537500D01*
G75*
G02*
X66812500Y-78675000I-137500J0D01*
G01*
G37*
G36*
G01*
X66812500Y-77875000D02*
X65212500Y-77875000D01*
G75*
G02*
X65075000Y-77737500I0J137500D01*
G01*
X65075000Y-77462500D01*
G75*
G02*
X65212500Y-77325000I137500J0D01*
G01*
X66812500Y-77325000D01*
G75*
G02*
X66950000Y-77462500I0J-137500D01*
G01*
X66950000Y-77737500D01*
G75*
G02*
X66812500Y-77875000I-137500J0D01*
G01*
G37*
G36*
G01*
X66812500Y-77075000D02*
X65212500Y-77075000D01*
G75*
G02*
X65075000Y-76937500I0J137500D01*
G01*
X65075000Y-76662500D01*
G75*
G02*
X65212500Y-76525000I137500J0D01*
G01*
X66812500Y-76525000D01*
G75*
G02*
X66950000Y-76662500I0J-137500D01*
G01*
X66950000Y-76937500D01*
G75*
G02*
X66812500Y-77075000I-137500J0D01*
G01*
G37*
G36*
G01*
X66812500Y-76275000D02*
X65212500Y-76275000D01*
G75*
G02*
X65075000Y-76137500I0J137500D01*
G01*
X65075000Y-75862500D01*
G75*
G02*
X65212500Y-75725000I137500J0D01*
G01*
X66812500Y-75725000D01*
G75*
G02*
X66950000Y-75862500I0J-137500D01*
G01*
X66950000Y-76137500D01*
G75*
G02*
X66812500Y-76275000I-137500J0D01*
G01*
G37*
G36*
G01*
X68637500Y-74450000D02*
X68362500Y-74450000D01*
G75*
G02*
X68225000Y-74312500I0J137500D01*
G01*
X68225000Y-72712500D01*
G75*
G02*
X68362500Y-72575000I137500J0D01*
G01*
X68637500Y-72575000D01*
G75*
G02*
X68775000Y-72712500I0J-137500D01*
G01*
X68775000Y-74312500D01*
G75*
G02*
X68637500Y-74450000I-137500J0D01*
G01*
G37*
G36*
G01*
X69437500Y-74450000D02*
X69162500Y-74450000D01*
G75*
G02*
X69025000Y-74312500I0J137500D01*
G01*
X69025000Y-72712500D01*
G75*
G02*
X69162500Y-72575000I137500J0D01*
G01*
X69437500Y-72575000D01*
G75*
G02*
X69575000Y-72712500I0J-137500D01*
G01*
X69575000Y-74312500D01*
G75*
G02*
X69437500Y-74450000I-137500J0D01*
G01*
G37*
G36*
G01*
X70237500Y-74450000D02*
X69962500Y-74450000D01*
G75*
G02*
X69825000Y-74312500I0J137500D01*
G01*
X69825000Y-72712500D01*
G75*
G02*
X69962500Y-72575000I137500J0D01*
G01*
X70237500Y-72575000D01*
G75*
G02*
X70375000Y-72712500I0J-137500D01*
G01*
X70375000Y-74312500D01*
G75*
G02*
X70237500Y-74450000I-137500J0D01*
G01*
G37*
G36*
G01*
X71037500Y-74450000D02*
X70762500Y-74450000D01*
G75*
G02*
X70625000Y-74312500I0J137500D01*
G01*
X70625000Y-72712500D01*
G75*
G02*
X70762500Y-72575000I137500J0D01*
G01*
X71037500Y-72575000D01*
G75*
G02*
X71175000Y-72712500I0J-137500D01*
G01*
X71175000Y-74312500D01*
G75*
G02*
X71037500Y-74450000I-137500J0D01*
G01*
G37*
G36*
G01*
X71837500Y-74450000D02*
X71562500Y-74450000D01*
G75*
G02*
X71425000Y-74312500I0J137500D01*
G01*
X71425000Y-72712500D01*
G75*
G02*
X71562500Y-72575000I137500J0D01*
G01*
X71837500Y-72575000D01*
G75*
G02*
X71975000Y-72712500I0J-137500D01*
G01*
X71975000Y-74312500D01*
G75*
G02*
X71837500Y-74450000I-137500J0D01*
G01*
G37*
G36*
G01*
X72637500Y-74450000D02*
X72362500Y-74450000D01*
G75*
G02*
X72225000Y-74312500I0J137500D01*
G01*
X72225000Y-72712500D01*
G75*
G02*
X72362500Y-72575000I137500J0D01*
G01*
X72637500Y-72575000D01*
G75*
G02*
X72775000Y-72712500I0J-137500D01*
G01*
X72775000Y-74312500D01*
G75*
G02*
X72637500Y-74450000I-137500J0D01*
G01*
G37*
G36*
G01*
X73437500Y-74450000D02*
X73162500Y-74450000D01*
G75*
G02*
X73025000Y-74312500I0J137500D01*
G01*
X73025000Y-72712500D01*
G75*
G02*
X73162500Y-72575000I137500J0D01*
G01*
X73437500Y-72575000D01*
G75*
G02*
X73575000Y-72712500I0J-137500D01*
G01*
X73575000Y-74312500D01*
G75*
G02*
X73437500Y-74450000I-137500J0D01*
G01*
G37*
G36*
G01*
X74237500Y-74450000D02*
X73962500Y-74450000D01*
G75*
G02*
X73825000Y-74312500I0J137500D01*
G01*
X73825000Y-72712500D01*
G75*
G02*
X73962500Y-72575000I137500J0D01*
G01*
X74237500Y-72575000D01*
G75*
G02*
X74375000Y-72712500I0J-137500D01*
G01*
X74375000Y-74312500D01*
G75*
G02*
X74237500Y-74450000I-137500J0D01*
G01*
G37*
G36*
G01*
X75037500Y-74450000D02*
X74762500Y-74450000D01*
G75*
G02*
X74625000Y-74312500I0J137500D01*
G01*
X74625000Y-72712500D01*
G75*
G02*
X74762500Y-72575000I137500J0D01*
G01*
X75037500Y-72575000D01*
G75*
G02*
X75175000Y-72712500I0J-137500D01*
G01*
X75175000Y-74312500D01*
G75*
G02*
X75037500Y-74450000I-137500J0D01*
G01*
G37*
G36*
G01*
X75837500Y-74450000D02*
X75562500Y-74450000D01*
G75*
G02*
X75425000Y-74312500I0J137500D01*
G01*
X75425000Y-72712500D01*
G75*
G02*
X75562500Y-72575000I137500J0D01*
G01*
X75837500Y-72575000D01*
G75*
G02*
X75975000Y-72712500I0J-137500D01*
G01*
X75975000Y-74312500D01*
G75*
G02*
X75837500Y-74450000I-137500J0D01*
G01*
G37*
G36*
G01*
X76637500Y-74450000D02*
X76362500Y-74450000D01*
G75*
G02*
X76225000Y-74312500I0J137500D01*
G01*
X76225000Y-72712500D01*
G75*
G02*
X76362500Y-72575000I137500J0D01*
G01*
X76637500Y-72575000D01*
G75*
G02*
X76775000Y-72712500I0J-137500D01*
G01*
X76775000Y-74312500D01*
G75*
G02*
X76637500Y-74450000I-137500J0D01*
G01*
G37*
G36*
G01*
X79787500Y-76275000D02*
X78187500Y-76275000D01*
G75*
G02*
X78050000Y-76137500I0J137500D01*
G01*
X78050000Y-75862500D01*
G75*
G02*
X78187500Y-75725000I137500J0D01*
G01*
X79787500Y-75725000D01*
G75*
G02*
X79925000Y-75862500I0J-137500D01*
G01*
X79925000Y-76137500D01*
G75*
G02*
X79787500Y-76275000I-137500J0D01*
G01*
G37*
G36*
G01*
X79787500Y-77075000D02*
X78187500Y-77075000D01*
G75*
G02*
X78050000Y-76937500I0J137500D01*
G01*
X78050000Y-76662500D01*
G75*
G02*
X78187500Y-76525000I137500J0D01*
G01*
X79787500Y-76525000D01*
G75*
G02*
X79925000Y-76662500I0J-137500D01*
G01*
X79925000Y-76937500D01*
G75*
G02*
X79787500Y-77075000I-137500J0D01*
G01*
G37*
G36*
G01*
X79787500Y-77875000D02*
X78187500Y-77875000D01*
G75*
G02*
X78050000Y-77737500I0J137500D01*
G01*
X78050000Y-77462500D01*
G75*
G02*
X78187500Y-77325000I137500J0D01*
G01*
X79787500Y-77325000D01*
G75*
G02*
X79925000Y-77462500I0J-137500D01*
G01*
X79925000Y-77737500D01*
G75*
G02*
X79787500Y-77875000I-137500J0D01*
G01*
G37*
G36*
G01*
X79787500Y-78675000D02*
X78187500Y-78675000D01*
G75*
G02*
X78050000Y-78537500I0J137500D01*
G01*
X78050000Y-78262500D01*
G75*
G02*
X78187500Y-78125000I137500J0D01*
G01*
X79787500Y-78125000D01*
G75*
G02*
X79925000Y-78262500I0J-137500D01*
G01*
X79925000Y-78537500D01*
G75*
G02*
X79787500Y-78675000I-137500J0D01*
G01*
G37*
G36*
G01*
X79787500Y-79475000D02*
X78187500Y-79475000D01*
G75*
G02*
X78050000Y-79337500I0J137500D01*
G01*
X78050000Y-79062500D01*
G75*
G02*
X78187500Y-78925000I137500J0D01*
G01*
X79787500Y-78925000D01*
G75*
G02*
X79925000Y-79062500I0J-137500D01*
G01*
X79925000Y-79337500D01*
G75*
G02*
X79787500Y-79475000I-137500J0D01*
G01*
G37*
G36*
G01*
X79787500Y-80275000D02*
X78187500Y-80275000D01*
G75*
G02*
X78050000Y-80137500I0J137500D01*
G01*
X78050000Y-79862500D01*
G75*
G02*
X78187500Y-79725000I137500J0D01*
G01*
X79787500Y-79725000D01*
G75*
G02*
X79925000Y-79862500I0J-137500D01*
G01*
X79925000Y-80137500D01*
G75*
G02*
X79787500Y-80275000I-137500J0D01*
G01*
G37*
G36*
G01*
X79787500Y-81075000D02*
X78187500Y-81075000D01*
G75*
G02*
X78050000Y-80937500I0J137500D01*
G01*
X78050000Y-80662500D01*
G75*
G02*
X78187500Y-80525000I137500J0D01*
G01*
X79787500Y-80525000D01*
G75*
G02*
X79925000Y-80662500I0J-137500D01*
G01*
X79925000Y-80937500D01*
G75*
G02*
X79787500Y-81075000I-137500J0D01*
G01*
G37*
G36*
G01*
X79787500Y-81875000D02*
X78187500Y-81875000D01*
G75*
G02*
X78050000Y-81737500I0J137500D01*
G01*
X78050000Y-81462500D01*
G75*
G02*
X78187500Y-81325000I137500J0D01*
G01*
X79787500Y-81325000D01*
G75*
G02*
X79925000Y-81462500I0J-137500D01*
G01*
X79925000Y-81737500D01*
G75*
G02*
X79787500Y-81875000I-137500J0D01*
G01*
G37*
G36*
G01*
X79787500Y-82675000D02*
X78187500Y-82675000D01*
G75*
G02*
X78050000Y-82537500I0J137500D01*
G01*
X78050000Y-82262500D01*
G75*
G02*
X78187500Y-82125000I137500J0D01*
G01*
X79787500Y-82125000D01*
G75*
G02*
X79925000Y-82262500I0J-137500D01*
G01*
X79925000Y-82537500D01*
G75*
G02*
X79787500Y-82675000I-137500J0D01*
G01*
G37*
G36*
G01*
X79787500Y-83475000D02*
X78187500Y-83475000D01*
G75*
G02*
X78050000Y-83337500I0J137500D01*
G01*
X78050000Y-83062500D01*
G75*
G02*
X78187500Y-82925000I137500J0D01*
G01*
X79787500Y-82925000D01*
G75*
G02*
X79925000Y-83062500I0J-137500D01*
G01*
X79925000Y-83337500D01*
G75*
G02*
X79787500Y-83475000I-137500J0D01*
G01*
G37*
G36*
G01*
X79787500Y-84275000D02*
X78187500Y-84275000D01*
G75*
G02*
X78050000Y-84137500I0J137500D01*
G01*
X78050000Y-83862500D01*
G75*
G02*
X78187500Y-83725000I137500J0D01*
G01*
X79787500Y-83725000D01*
G75*
G02*
X79925000Y-83862500I0J-137500D01*
G01*
X79925000Y-84137500D01*
G75*
G02*
X79787500Y-84275000I-137500J0D01*
G01*
G37*
G36*
G01*
X76637500Y-87425000D02*
X76362500Y-87425000D01*
G75*
G02*
X76225000Y-87287500I0J137500D01*
G01*
X76225000Y-85687500D01*
G75*
G02*
X76362500Y-85550000I137500J0D01*
G01*
X76637500Y-85550000D01*
G75*
G02*
X76775000Y-85687500I0J-137500D01*
G01*
X76775000Y-87287500D01*
G75*
G02*
X76637500Y-87425000I-137500J0D01*
G01*
G37*
G36*
G01*
X75837500Y-87425000D02*
X75562500Y-87425000D01*
G75*
G02*
X75425000Y-87287500I0J137500D01*
G01*
X75425000Y-85687500D01*
G75*
G02*
X75562500Y-85550000I137500J0D01*
G01*
X75837500Y-85550000D01*
G75*
G02*
X75975000Y-85687500I0J-137500D01*
G01*
X75975000Y-87287500D01*
G75*
G02*
X75837500Y-87425000I-137500J0D01*
G01*
G37*
G36*
G01*
X75037500Y-87425000D02*
X74762500Y-87425000D01*
G75*
G02*
X74625000Y-87287500I0J137500D01*
G01*
X74625000Y-85687500D01*
G75*
G02*
X74762500Y-85550000I137500J0D01*
G01*
X75037500Y-85550000D01*
G75*
G02*
X75175000Y-85687500I0J-137500D01*
G01*
X75175000Y-87287500D01*
G75*
G02*
X75037500Y-87425000I-137500J0D01*
G01*
G37*
G36*
G01*
X74237500Y-87425000D02*
X73962500Y-87425000D01*
G75*
G02*
X73825000Y-87287500I0J137500D01*
G01*
X73825000Y-85687500D01*
G75*
G02*
X73962500Y-85550000I137500J0D01*
G01*
X74237500Y-85550000D01*
G75*
G02*
X74375000Y-85687500I0J-137500D01*
G01*
X74375000Y-87287500D01*
G75*
G02*
X74237500Y-87425000I-137500J0D01*
G01*
G37*
G36*
G01*
X73437500Y-87425000D02*
X73162500Y-87425000D01*
G75*
G02*
X73025000Y-87287500I0J137500D01*
G01*
X73025000Y-85687500D01*
G75*
G02*
X73162500Y-85550000I137500J0D01*
G01*
X73437500Y-85550000D01*
G75*
G02*
X73575000Y-85687500I0J-137500D01*
G01*
X73575000Y-87287500D01*
G75*
G02*
X73437500Y-87425000I-137500J0D01*
G01*
G37*
G36*
G01*
X72637500Y-87425000D02*
X72362500Y-87425000D01*
G75*
G02*
X72225000Y-87287500I0J137500D01*
G01*
X72225000Y-85687500D01*
G75*
G02*
X72362500Y-85550000I137500J0D01*
G01*
X72637500Y-85550000D01*
G75*
G02*
X72775000Y-85687500I0J-137500D01*
G01*
X72775000Y-87287500D01*
G75*
G02*
X72637500Y-87425000I-137500J0D01*
G01*
G37*
G36*
G01*
X71837500Y-87425000D02*
X71562500Y-87425000D01*
G75*
G02*
X71425000Y-87287500I0J137500D01*
G01*
X71425000Y-85687500D01*
G75*
G02*
X71562500Y-85550000I137500J0D01*
G01*
X71837500Y-85550000D01*
G75*
G02*
X71975000Y-85687500I0J-137500D01*
G01*
X71975000Y-87287500D01*
G75*
G02*
X71837500Y-87425000I-137500J0D01*
G01*
G37*
G36*
G01*
X71037500Y-87425000D02*
X70762500Y-87425000D01*
G75*
G02*
X70625000Y-87287500I0J137500D01*
G01*
X70625000Y-85687500D01*
G75*
G02*
X70762500Y-85550000I137500J0D01*
G01*
X71037500Y-85550000D01*
G75*
G02*
X71175000Y-85687500I0J-137500D01*
G01*
X71175000Y-87287500D01*
G75*
G02*
X71037500Y-87425000I-137500J0D01*
G01*
G37*
G36*
G01*
X70237500Y-87425000D02*
X69962500Y-87425000D01*
G75*
G02*
X69825000Y-87287500I0J137500D01*
G01*
X69825000Y-85687500D01*
G75*
G02*
X69962500Y-85550000I137500J0D01*
G01*
X70237500Y-85550000D01*
G75*
G02*
X70375000Y-85687500I0J-137500D01*
G01*
X70375000Y-87287500D01*
G75*
G02*
X70237500Y-87425000I-137500J0D01*
G01*
G37*
G36*
G01*
X69437500Y-87425000D02*
X69162500Y-87425000D01*
G75*
G02*
X69025000Y-87287500I0J137500D01*
G01*
X69025000Y-85687500D01*
G75*
G02*
X69162500Y-85550000I137500J0D01*
G01*
X69437500Y-85550000D01*
G75*
G02*
X69575000Y-85687500I0J-137500D01*
G01*
X69575000Y-87287500D01*
G75*
G02*
X69437500Y-87425000I-137500J0D01*
G01*
G37*
G36*
G01*
X68637500Y-87425000D02*
X68362500Y-87425000D01*
G75*
G02*
X68225000Y-87287500I0J137500D01*
G01*
X68225000Y-85687500D01*
G75*
G02*
X68362500Y-85550000I137500J0D01*
G01*
X68637500Y-85550000D01*
G75*
G02*
X68775000Y-85687500I0J-137500D01*
G01*
X68775000Y-87287500D01*
G75*
G02*
X68637500Y-87425000I-137500J0D01*
G01*
G37*
G36*
G01*
X131812500Y-84275000D02*
X130212500Y-84275000D01*
G75*
G02*
X130075000Y-84137500I0J137500D01*
G01*
X130075000Y-83862500D01*
G75*
G02*
X130212500Y-83725000I137500J0D01*
G01*
X131812500Y-83725000D01*
G75*
G02*
X131950000Y-83862500I0J-137500D01*
G01*
X131950000Y-84137500D01*
G75*
G02*
X131812500Y-84275000I-137500J0D01*
G01*
G37*
G36*
G01*
X131812500Y-83475000D02*
X130212500Y-83475000D01*
G75*
G02*
X130075000Y-83337500I0J137500D01*
G01*
X130075000Y-83062500D01*
G75*
G02*
X130212500Y-82925000I137500J0D01*
G01*
X131812500Y-82925000D01*
G75*
G02*
X131950000Y-83062500I0J-137500D01*
G01*
X131950000Y-83337500D01*
G75*
G02*
X131812500Y-83475000I-137500J0D01*
G01*
G37*
G36*
G01*
X131812500Y-82675000D02*
X130212500Y-82675000D01*
G75*
G02*
X130075000Y-82537500I0J137500D01*
G01*
X130075000Y-82262500D01*
G75*
G02*
X130212500Y-82125000I137500J0D01*
G01*
X131812500Y-82125000D01*
G75*
G02*
X131950000Y-82262500I0J-137500D01*
G01*
X131950000Y-82537500D01*
G75*
G02*
X131812500Y-82675000I-137500J0D01*
G01*
G37*
G36*
G01*
X131812500Y-81875000D02*
X130212500Y-81875000D01*
G75*
G02*
X130075000Y-81737500I0J137500D01*
G01*
X130075000Y-81462500D01*
G75*
G02*
X130212500Y-81325000I137500J0D01*
G01*
X131812500Y-81325000D01*
G75*
G02*
X131950000Y-81462500I0J-137500D01*
G01*
X131950000Y-81737500D01*
G75*
G02*
X131812500Y-81875000I-137500J0D01*
G01*
G37*
G36*
G01*
X131812500Y-81075000D02*
X130212500Y-81075000D01*
G75*
G02*
X130075000Y-80937500I0J137500D01*
G01*
X130075000Y-80662500D01*
G75*
G02*
X130212500Y-80525000I137500J0D01*
G01*
X131812500Y-80525000D01*
G75*
G02*
X131950000Y-80662500I0J-137500D01*
G01*
X131950000Y-80937500D01*
G75*
G02*
X131812500Y-81075000I-137500J0D01*
G01*
G37*
G36*
G01*
X131812500Y-80275000D02*
X130212500Y-80275000D01*
G75*
G02*
X130075000Y-80137500I0J137500D01*
G01*
X130075000Y-79862500D01*
G75*
G02*
X130212500Y-79725000I137500J0D01*
G01*
X131812500Y-79725000D01*
G75*
G02*
X131950000Y-79862500I0J-137500D01*
G01*
X131950000Y-80137500D01*
G75*
G02*
X131812500Y-80275000I-137500J0D01*
G01*
G37*
G36*
G01*
X131812500Y-79475000D02*
X130212500Y-79475000D01*
G75*
G02*
X130075000Y-79337500I0J137500D01*
G01*
X130075000Y-79062500D01*
G75*
G02*
X130212500Y-78925000I137500J0D01*
G01*
X131812500Y-78925000D01*
G75*
G02*
X131950000Y-79062500I0J-137500D01*
G01*
X131950000Y-79337500D01*
G75*
G02*
X131812500Y-79475000I-137500J0D01*
G01*
G37*
G36*
G01*
X131812500Y-78675000D02*
X130212500Y-78675000D01*
G75*
G02*
X130075000Y-78537500I0J137500D01*
G01*
X130075000Y-78262500D01*
G75*
G02*
X130212500Y-78125000I137500J0D01*
G01*
X131812500Y-78125000D01*
G75*
G02*
X131950000Y-78262500I0J-137500D01*
G01*
X131950000Y-78537500D01*
G75*
G02*
X131812500Y-78675000I-137500J0D01*
G01*
G37*
G36*
G01*
X131812500Y-77875000D02*
X130212500Y-77875000D01*
G75*
G02*
X130075000Y-77737500I0J137500D01*
G01*
X130075000Y-77462500D01*
G75*
G02*
X130212500Y-77325000I137500J0D01*
G01*
X131812500Y-77325000D01*
G75*
G02*
X131950000Y-77462500I0J-137500D01*
G01*
X131950000Y-77737500D01*
G75*
G02*
X131812500Y-77875000I-137500J0D01*
G01*
G37*
G36*
G01*
X131812500Y-77075000D02*
X130212500Y-77075000D01*
G75*
G02*
X130075000Y-76937500I0J137500D01*
G01*
X130075000Y-76662500D01*
G75*
G02*
X130212500Y-76525000I137500J0D01*
G01*
X131812500Y-76525000D01*
G75*
G02*
X131950000Y-76662500I0J-137500D01*
G01*
X131950000Y-76937500D01*
G75*
G02*
X131812500Y-77075000I-137500J0D01*
G01*
G37*
G36*
G01*
X131812500Y-76275000D02*
X130212500Y-76275000D01*
G75*
G02*
X130075000Y-76137500I0J137500D01*
G01*
X130075000Y-75862500D01*
G75*
G02*
X130212500Y-75725000I137500J0D01*
G01*
X131812500Y-75725000D01*
G75*
G02*
X131950000Y-75862500I0J-137500D01*
G01*
X131950000Y-76137500D01*
G75*
G02*
X131812500Y-76275000I-137500J0D01*
G01*
G37*
G36*
G01*
X133637500Y-74450000D02*
X133362500Y-74450000D01*
G75*
G02*
X133225000Y-74312500I0J137500D01*
G01*
X133225000Y-72712500D01*
G75*
G02*
X133362500Y-72575000I137500J0D01*
G01*
X133637500Y-72575000D01*
G75*
G02*
X133775000Y-72712500I0J-137500D01*
G01*
X133775000Y-74312500D01*
G75*
G02*
X133637500Y-74450000I-137500J0D01*
G01*
G37*
G36*
G01*
X134437500Y-74450000D02*
X134162500Y-74450000D01*
G75*
G02*
X134025000Y-74312500I0J137500D01*
G01*
X134025000Y-72712500D01*
G75*
G02*
X134162500Y-72575000I137500J0D01*
G01*
X134437500Y-72575000D01*
G75*
G02*
X134575000Y-72712500I0J-137500D01*
G01*
X134575000Y-74312500D01*
G75*
G02*
X134437500Y-74450000I-137500J0D01*
G01*
G37*
G36*
G01*
X135237500Y-74450000D02*
X134962500Y-74450000D01*
G75*
G02*
X134825000Y-74312500I0J137500D01*
G01*
X134825000Y-72712500D01*
G75*
G02*
X134962500Y-72575000I137500J0D01*
G01*
X135237500Y-72575000D01*
G75*
G02*
X135375000Y-72712500I0J-137500D01*
G01*
X135375000Y-74312500D01*
G75*
G02*
X135237500Y-74450000I-137500J0D01*
G01*
G37*
G36*
G01*
X136037500Y-74450000D02*
X135762500Y-74450000D01*
G75*
G02*
X135625000Y-74312500I0J137500D01*
G01*
X135625000Y-72712500D01*
G75*
G02*
X135762500Y-72575000I137500J0D01*
G01*
X136037500Y-72575000D01*
G75*
G02*
X136175000Y-72712500I0J-137500D01*
G01*
X136175000Y-74312500D01*
G75*
G02*
X136037500Y-74450000I-137500J0D01*
G01*
G37*
G36*
G01*
X136837500Y-74450000D02*
X136562500Y-74450000D01*
G75*
G02*
X136425000Y-74312500I0J137500D01*
G01*
X136425000Y-72712500D01*
G75*
G02*
X136562500Y-72575000I137500J0D01*
G01*
X136837500Y-72575000D01*
G75*
G02*
X136975000Y-72712500I0J-137500D01*
G01*
X136975000Y-74312500D01*
G75*
G02*
X136837500Y-74450000I-137500J0D01*
G01*
G37*
G36*
G01*
X137637500Y-74450000D02*
X137362500Y-74450000D01*
G75*
G02*
X137225000Y-74312500I0J137500D01*
G01*
X137225000Y-72712500D01*
G75*
G02*
X137362500Y-72575000I137500J0D01*
G01*
X137637500Y-72575000D01*
G75*
G02*
X137775000Y-72712500I0J-137500D01*
G01*
X137775000Y-74312500D01*
G75*
G02*
X137637500Y-74450000I-137500J0D01*
G01*
G37*
G36*
G01*
X138437500Y-74450000D02*
X138162500Y-74450000D01*
G75*
G02*
X138025000Y-74312500I0J137500D01*
G01*
X138025000Y-72712500D01*
G75*
G02*
X138162500Y-72575000I137500J0D01*
G01*
X138437500Y-72575000D01*
G75*
G02*
X138575000Y-72712500I0J-137500D01*
G01*
X138575000Y-74312500D01*
G75*
G02*
X138437500Y-74450000I-137500J0D01*
G01*
G37*
G36*
G01*
X139237500Y-74450000D02*
X138962500Y-74450000D01*
G75*
G02*
X138825000Y-74312500I0J137500D01*
G01*
X138825000Y-72712500D01*
G75*
G02*
X138962500Y-72575000I137500J0D01*
G01*
X139237500Y-72575000D01*
G75*
G02*
X139375000Y-72712500I0J-137500D01*
G01*
X139375000Y-74312500D01*
G75*
G02*
X139237500Y-74450000I-137500J0D01*
G01*
G37*
G36*
G01*
X140037500Y-74450000D02*
X139762500Y-74450000D01*
G75*
G02*
X139625000Y-74312500I0J137500D01*
G01*
X139625000Y-72712500D01*
G75*
G02*
X139762500Y-72575000I137500J0D01*
G01*
X140037500Y-72575000D01*
G75*
G02*
X140175000Y-72712500I0J-137500D01*
G01*
X140175000Y-74312500D01*
G75*
G02*
X140037500Y-74450000I-137500J0D01*
G01*
G37*
G36*
G01*
X140837500Y-74450000D02*
X140562500Y-74450000D01*
G75*
G02*
X140425000Y-74312500I0J137500D01*
G01*
X140425000Y-72712500D01*
G75*
G02*
X140562500Y-72575000I137500J0D01*
G01*
X140837500Y-72575000D01*
G75*
G02*
X140975000Y-72712500I0J-137500D01*
G01*
X140975000Y-74312500D01*
G75*
G02*
X140837500Y-74450000I-137500J0D01*
G01*
G37*
G36*
G01*
X141637500Y-74450000D02*
X141362500Y-74450000D01*
G75*
G02*
X141225000Y-74312500I0J137500D01*
G01*
X141225000Y-72712500D01*
G75*
G02*
X141362500Y-72575000I137500J0D01*
G01*
X141637500Y-72575000D01*
G75*
G02*
X141775000Y-72712500I0J-137500D01*
G01*
X141775000Y-74312500D01*
G75*
G02*
X141637500Y-74450000I-137500J0D01*
G01*
G37*
G36*
G01*
X144787500Y-76275000D02*
X143187500Y-76275000D01*
G75*
G02*
X143050000Y-76137500I0J137500D01*
G01*
X143050000Y-75862500D01*
G75*
G02*
X143187500Y-75725000I137500J0D01*
G01*
X144787500Y-75725000D01*
G75*
G02*
X144925000Y-75862500I0J-137500D01*
G01*
X144925000Y-76137500D01*
G75*
G02*
X144787500Y-76275000I-137500J0D01*
G01*
G37*
G36*
G01*
X144787500Y-77075000D02*
X143187500Y-77075000D01*
G75*
G02*
X143050000Y-76937500I0J137500D01*
G01*
X143050000Y-76662500D01*
G75*
G02*
X143187500Y-76525000I137500J0D01*
G01*
X144787500Y-76525000D01*
G75*
G02*
X144925000Y-76662500I0J-137500D01*
G01*
X144925000Y-76937500D01*
G75*
G02*
X144787500Y-77075000I-137500J0D01*
G01*
G37*
G36*
G01*
X144787500Y-77875000D02*
X143187500Y-77875000D01*
G75*
G02*
X143050000Y-77737500I0J137500D01*
G01*
X143050000Y-77462500D01*
G75*
G02*
X143187500Y-77325000I137500J0D01*
G01*
X144787500Y-77325000D01*
G75*
G02*
X144925000Y-77462500I0J-137500D01*
G01*
X144925000Y-77737500D01*
G75*
G02*
X144787500Y-77875000I-137500J0D01*
G01*
G37*
G36*
G01*
X144787500Y-78675000D02*
X143187500Y-78675000D01*
G75*
G02*
X143050000Y-78537500I0J137500D01*
G01*
X143050000Y-78262500D01*
G75*
G02*
X143187500Y-78125000I137500J0D01*
G01*
X144787500Y-78125000D01*
G75*
G02*
X144925000Y-78262500I0J-137500D01*
G01*
X144925000Y-78537500D01*
G75*
G02*
X144787500Y-78675000I-137500J0D01*
G01*
G37*
G36*
G01*
X144787500Y-79475000D02*
X143187500Y-79475000D01*
G75*
G02*
X143050000Y-79337500I0J137500D01*
G01*
X143050000Y-79062500D01*
G75*
G02*
X143187500Y-78925000I137500J0D01*
G01*
X144787500Y-78925000D01*
G75*
G02*
X144925000Y-79062500I0J-137500D01*
G01*
X144925000Y-79337500D01*
G75*
G02*
X144787500Y-79475000I-137500J0D01*
G01*
G37*
G36*
G01*
X144787500Y-80275000D02*
X143187500Y-80275000D01*
G75*
G02*
X143050000Y-80137500I0J137500D01*
G01*
X143050000Y-79862500D01*
G75*
G02*
X143187500Y-79725000I137500J0D01*
G01*
X144787500Y-79725000D01*
G75*
G02*
X144925000Y-79862500I0J-137500D01*
G01*
X144925000Y-80137500D01*
G75*
G02*
X144787500Y-80275000I-137500J0D01*
G01*
G37*
G36*
G01*
X144787500Y-81075000D02*
X143187500Y-81075000D01*
G75*
G02*
X143050000Y-80937500I0J137500D01*
G01*
X143050000Y-80662500D01*
G75*
G02*
X143187500Y-80525000I137500J0D01*
G01*
X144787500Y-80525000D01*
G75*
G02*
X144925000Y-80662500I0J-137500D01*
G01*
X144925000Y-80937500D01*
G75*
G02*
X144787500Y-81075000I-137500J0D01*
G01*
G37*
G36*
G01*
X144787500Y-81875000D02*
X143187500Y-81875000D01*
G75*
G02*
X143050000Y-81737500I0J137500D01*
G01*
X143050000Y-81462500D01*
G75*
G02*
X143187500Y-81325000I137500J0D01*
G01*
X144787500Y-81325000D01*
G75*
G02*
X144925000Y-81462500I0J-137500D01*
G01*
X144925000Y-81737500D01*
G75*
G02*
X144787500Y-81875000I-137500J0D01*
G01*
G37*
G36*
G01*
X144787500Y-82675000D02*
X143187500Y-82675000D01*
G75*
G02*
X143050000Y-82537500I0J137500D01*
G01*
X143050000Y-82262500D01*
G75*
G02*
X143187500Y-82125000I137500J0D01*
G01*
X144787500Y-82125000D01*
G75*
G02*
X144925000Y-82262500I0J-137500D01*
G01*
X144925000Y-82537500D01*
G75*
G02*
X144787500Y-82675000I-137500J0D01*
G01*
G37*
G36*
G01*
X144787500Y-83475000D02*
X143187500Y-83475000D01*
G75*
G02*
X143050000Y-83337500I0J137500D01*
G01*
X143050000Y-83062500D01*
G75*
G02*
X143187500Y-82925000I137500J0D01*
G01*
X144787500Y-82925000D01*
G75*
G02*
X144925000Y-83062500I0J-137500D01*
G01*
X144925000Y-83337500D01*
G75*
G02*
X144787500Y-83475000I-137500J0D01*
G01*
G37*
G36*
G01*
X144787500Y-84275000D02*
X143187500Y-84275000D01*
G75*
G02*
X143050000Y-84137500I0J137500D01*
G01*
X143050000Y-83862500D01*
G75*
G02*
X143187500Y-83725000I137500J0D01*
G01*
X144787500Y-83725000D01*
G75*
G02*
X144925000Y-83862500I0J-137500D01*
G01*
X144925000Y-84137500D01*
G75*
G02*
X144787500Y-84275000I-137500J0D01*
G01*
G37*
G36*
G01*
X141637500Y-87425000D02*
X141362500Y-87425000D01*
G75*
G02*
X141225000Y-87287500I0J137500D01*
G01*
X141225000Y-85687500D01*
G75*
G02*
X141362500Y-85550000I137500J0D01*
G01*
X141637500Y-85550000D01*
G75*
G02*
X141775000Y-85687500I0J-137500D01*
G01*
X141775000Y-87287500D01*
G75*
G02*
X141637500Y-87425000I-137500J0D01*
G01*
G37*
G36*
G01*
X140837500Y-87425000D02*
X140562500Y-87425000D01*
G75*
G02*
X140425000Y-87287500I0J137500D01*
G01*
X140425000Y-85687500D01*
G75*
G02*
X140562500Y-85550000I137500J0D01*
G01*
X140837500Y-85550000D01*
G75*
G02*
X140975000Y-85687500I0J-137500D01*
G01*
X140975000Y-87287500D01*
G75*
G02*
X140837500Y-87425000I-137500J0D01*
G01*
G37*
G36*
G01*
X140037500Y-87425000D02*
X139762500Y-87425000D01*
G75*
G02*
X139625000Y-87287500I0J137500D01*
G01*
X139625000Y-85687500D01*
G75*
G02*
X139762500Y-85550000I137500J0D01*
G01*
X140037500Y-85550000D01*
G75*
G02*
X140175000Y-85687500I0J-137500D01*
G01*
X140175000Y-87287500D01*
G75*
G02*
X140037500Y-87425000I-137500J0D01*
G01*
G37*
G36*
G01*
X139237500Y-87425000D02*
X138962500Y-87425000D01*
G75*
G02*
X138825000Y-87287500I0J137500D01*
G01*
X138825000Y-85687500D01*
G75*
G02*
X138962500Y-85550000I137500J0D01*
G01*
X139237500Y-85550000D01*
G75*
G02*
X139375000Y-85687500I0J-137500D01*
G01*
X139375000Y-87287500D01*
G75*
G02*
X139237500Y-87425000I-137500J0D01*
G01*
G37*
G36*
G01*
X138437500Y-87425000D02*
X138162500Y-87425000D01*
G75*
G02*
X138025000Y-87287500I0J137500D01*
G01*
X138025000Y-85687500D01*
G75*
G02*
X138162500Y-85550000I137500J0D01*
G01*
X138437500Y-85550000D01*
G75*
G02*
X138575000Y-85687500I0J-137500D01*
G01*
X138575000Y-87287500D01*
G75*
G02*
X138437500Y-87425000I-137500J0D01*
G01*
G37*
G36*
G01*
X137637500Y-87425000D02*
X137362500Y-87425000D01*
G75*
G02*
X137225000Y-87287500I0J137500D01*
G01*
X137225000Y-85687500D01*
G75*
G02*
X137362500Y-85550000I137500J0D01*
G01*
X137637500Y-85550000D01*
G75*
G02*
X137775000Y-85687500I0J-137500D01*
G01*
X137775000Y-87287500D01*
G75*
G02*
X137637500Y-87425000I-137500J0D01*
G01*
G37*
G36*
G01*
X136837500Y-87425000D02*
X136562500Y-87425000D01*
G75*
G02*
X136425000Y-87287500I0J137500D01*
G01*
X136425000Y-85687500D01*
G75*
G02*
X136562500Y-85550000I137500J0D01*
G01*
X136837500Y-85550000D01*
G75*
G02*
X136975000Y-85687500I0J-137500D01*
G01*
X136975000Y-87287500D01*
G75*
G02*
X136837500Y-87425000I-137500J0D01*
G01*
G37*
G36*
G01*
X136037500Y-87425000D02*
X135762500Y-87425000D01*
G75*
G02*
X135625000Y-87287500I0J137500D01*
G01*
X135625000Y-85687500D01*
G75*
G02*
X135762500Y-85550000I137500J0D01*
G01*
X136037500Y-85550000D01*
G75*
G02*
X136175000Y-85687500I0J-137500D01*
G01*
X136175000Y-87287500D01*
G75*
G02*
X136037500Y-87425000I-137500J0D01*
G01*
G37*
G36*
G01*
X135237500Y-87425000D02*
X134962500Y-87425000D01*
G75*
G02*
X134825000Y-87287500I0J137500D01*
G01*
X134825000Y-85687500D01*
G75*
G02*
X134962500Y-85550000I137500J0D01*
G01*
X135237500Y-85550000D01*
G75*
G02*
X135375000Y-85687500I0J-137500D01*
G01*
X135375000Y-87287500D01*
G75*
G02*
X135237500Y-87425000I-137500J0D01*
G01*
G37*
G36*
G01*
X134437500Y-87425000D02*
X134162500Y-87425000D01*
G75*
G02*
X134025000Y-87287500I0J137500D01*
G01*
X134025000Y-85687500D01*
G75*
G02*
X134162500Y-85550000I137500J0D01*
G01*
X134437500Y-85550000D01*
G75*
G02*
X134575000Y-85687500I0J-137500D01*
G01*
X134575000Y-87287500D01*
G75*
G02*
X134437500Y-87425000I-137500J0D01*
G01*
G37*
G36*
G01*
X133637500Y-87425000D02*
X133362500Y-87425000D01*
G75*
G02*
X133225000Y-87287500I0J137500D01*
G01*
X133225000Y-85687500D01*
G75*
G02*
X133362500Y-85550000I137500J0D01*
G01*
X133637500Y-85550000D01*
G75*
G02*
X133775000Y-85687500I0J-137500D01*
G01*
X133775000Y-87287500D01*
G75*
G02*
X133637500Y-87425000I-137500J0D01*
G01*
G37*
D14*
X83300000Y-69745384D03*
X86700000Y-68795384D03*
X86700000Y-70695384D03*
D15*
X156540000Y-57800000D03*
X155740000Y-57800000D03*
X154940000Y-57800000D03*
X154140000Y-57800000D03*
X153340000Y-57800000D03*
D16*
X159390000Y-57700000D03*
X159390000Y-52200000D03*
X150490000Y-57700000D03*
X150490000Y-52200000D03*
D17*
X97310000Y-67000000D03*
X97310000Y-69000000D03*
X97310000Y-71000000D03*
X97310000Y-73000000D03*
X97310000Y-75000000D03*
X97310000Y-77000000D03*
X97310000Y-79000000D03*
X97310000Y-81000000D03*
X112710000Y-81000000D03*
X112710000Y-79000000D03*
X112710000Y-77000000D03*
X112710000Y-75000000D03*
X112710000Y-73000000D03*
X112710000Y-71000000D03*
X112710000Y-69000000D03*
X112710000Y-67000000D03*
D18*
X100000000Y-82700000D03*
X102000000Y-82700000D03*
X104000000Y-82700000D03*
X106000000Y-82700000D03*
X108000000Y-82700000D03*
X110000000Y-82700000D03*
G36*
G01*
X139700000Y-71450001D02*
X139700000Y-70549999D01*
G75*
G02*
X139949999Y-70300000I249999J0D01*
G01*
X140600001Y-70300000D01*
G75*
G02*
X140850000Y-70549999I0J-249999D01*
G01*
X140850000Y-71450001D01*
G75*
G02*
X140600001Y-71700000I-249999J0D01*
G01*
X139949999Y-71700000D01*
G75*
G02*
X139700000Y-71450001I0J249999D01*
G01*
G37*
G36*
G01*
X137650000Y-71450001D02*
X137650000Y-70549999D01*
G75*
G02*
X137899999Y-70300000I249999J0D01*
G01*
X138550001Y-70300000D01*
G75*
G02*
X138800000Y-70549999I0J-249999D01*
G01*
X138800000Y-71450001D01*
G75*
G02*
X138550001Y-71700000I-249999J0D01*
G01*
X137899999Y-71700000D01*
G75*
G02*
X137650000Y-71450001I0J249999D01*
G01*
G37*
G36*
G01*
X151450001Y-67550000D02*
X150549999Y-67550000D01*
G75*
G02*
X150300000Y-67300001I0J249999D01*
G01*
X150300000Y-66649999D01*
G75*
G02*
X150549999Y-66400000I249999J0D01*
G01*
X151450001Y-66400000D01*
G75*
G02*
X151700000Y-66649999I0J-249999D01*
G01*
X151700000Y-67300001D01*
G75*
G02*
X151450001Y-67550000I-249999J0D01*
G01*
G37*
G36*
G01*
X151450001Y-69600000D02*
X150549999Y-69600000D01*
G75*
G02*
X150300000Y-69350001I0J249999D01*
G01*
X150300000Y-68699999D01*
G75*
G02*
X150549999Y-68450000I249999J0D01*
G01*
X151450001Y-68450000D01*
G75*
G02*
X151700000Y-68699999I0J-249999D01*
G01*
X151700000Y-69350001D01*
G75*
G02*
X151450001Y-69600000I-249999J0D01*
G01*
G37*
G36*
G01*
X45950000Y-57450001D02*
X45950000Y-56549999D01*
G75*
G02*
X46199999Y-56300000I249999J0D01*
G01*
X46850001Y-56300000D01*
G75*
G02*
X47100000Y-56549999I0J-249999D01*
G01*
X47100000Y-57450001D01*
G75*
G02*
X46850001Y-57700000I-249999J0D01*
G01*
X46199999Y-57700000D01*
G75*
G02*
X45950000Y-57450001I0J249999D01*
G01*
G37*
G36*
G01*
X43900000Y-57450001D02*
X43900000Y-56549999D01*
G75*
G02*
X44149999Y-56300000I249999J0D01*
G01*
X44800001Y-56300000D01*
G75*
G02*
X45050000Y-56549999I0J-249999D01*
G01*
X45050000Y-57450001D01*
G75*
G02*
X44800001Y-57700000I-249999J0D01*
G01*
X44149999Y-57700000D01*
G75*
G02*
X43900000Y-57450001I0J249999D01*
G01*
G37*
G36*
G01*
X172299999Y-78400000D02*
X173200001Y-78400000D01*
G75*
G02*
X173450000Y-78649999I0J-249999D01*
G01*
X173450000Y-79300001D01*
G75*
G02*
X173200001Y-79550000I-249999J0D01*
G01*
X172299999Y-79550000D01*
G75*
G02*
X172050000Y-79300001I0J249999D01*
G01*
X172050000Y-78649999D01*
G75*
G02*
X172299999Y-78400000I249999J0D01*
G01*
G37*
G36*
G01*
X172299999Y-80450000D02*
X173200001Y-80450000D01*
G75*
G02*
X173450000Y-80699999I0J-249999D01*
G01*
X173450000Y-81350001D01*
G75*
G02*
X173200001Y-81600000I-249999J0D01*
G01*
X172299999Y-81600000D01*
G75*
G02*
X172050000Y-81350001I0J249999D01*
G01*
X172050000Y-80699999D01*
G75*
G02*
X172299999Y-80450000I249999J0D01*
G01*
G37*
G36*
G01*
X157049999Y-80450000D02*
X157950001Y-80450000D01*
G75*
G02*
X158200000Y-80699999I0J-249999D01*
G01*
X158200000Y-81350001D01*
G75*
G02*
X157950001Y-81600000I-249999J0D01*
G01*
X157049999Y-81600000D01*
G75*
G02*
X156800000Y-81350001I0J249999D01*
G01*
X156800000Y-80699999D01*
G75*
G02*
X157049999Y-80450000I249999J0D01*
G01*
G37*
G36*
G01*
X157049999Y-78400000D02*
X157950001Y-78400000D01*
G75*
G02*
X158200000Y-78649999I0J-249999D01*
G01*
X158200000Y-79300001D01*
G75*
G02*
X157950001Y-79550000I-249999J0D01*
G01*
X157049999Y-79550000D01*
G75*
G02*
X156800000Y-79300001I0J249999D01*
G01*
X156800000Y-78649999D01*
G75*
G02*
X157049999Y-78400000I249999J0D01*
G01*
G37*
G36*
G01*
X71450001Y-101600000D02*
X70549999Y-101600000D01*
G75*
G02*
X70300000Y-101350001I0J249999D01*
G01*
X70300000Y-100699999D01*
G75*
G02*
X70549999Y-100450000I249999J0D01*
G01*
X71450001Y-100450000D01*
G75*
G02*
X71700000Y-100699999I0J-249999D01*
G01*
X71700000Y-101350001D01*
G75*
G02*
X71450001Y-101600000I-249999J0D01*
G01*
G37*
G36*
G01*
X71450001Y-99550000D02*
X70549999Y-99550000D01*
G75*
G02*
X70300000Y-99300001I0J249999D01*
G01*
X70300000Y-98649999D01*
G75*
G02*
X70549999Y-98400000I249999J0D01*
G01*
X71450001Y-98400000D01*
G75*
G02*
X71700000Y-98649999I0J-249999D01*
G01*
X71700000Y-99300001D01*
G75*
G02*
X71450001Y-99550000I-249999J0D01*
G01*
G37*
G36*
G01*
X74450001Y-99550000D02*
X73549999Y-99550000D01*
G75*
G02*
X73300000Y-99300001I0J249999D01*
G01*
X73300000Y-98649999D01*
G75*
G02*
X73549999Y-98400000I249999J0D01*
G01*
X74450001Y-98400000D01*
G75*
G02*
X74700000Y-98649999I0J-249999D01*
G01*
X74700000Y-99300001D01*
G75*
G02*
X74450001Y-99550000I-249999J0D01*
G01*
G37*
G36*
G01*
X74450001Y-101600000D02*
X73549999Y-101600000D01*
G75*
G02*
X73300000Y-101350001I0J249999D01*
G01*
X73300000Y-100699999D01*
G75*
G02*
X73549999Y-100450000I249999J0D01*
G01*
X74450001Y-100450000D01*
G75*
G02*
X74700000Y-100699999I0J-249999D01*
G01*
X74700000Y-101350001D01*
G75*
G02*
X74450001Y-101600000I-249999J0D01*
G01*
G37*
G36*
G01*
X136450001Y-101600000D02*
X135549999Y-101600000D01*
G75*
G02*
X135300000Y-101350001I0J249999D01*
G01*
X135300000Y-100699999D01*
G75*
G02*
X135549999Y-100450000I249999J0D01*
G01*
X136450001Y-100450000D01*
G75*
G02*
X136700000Y-100699999I0J-249999D01*
G01*
X136700000Y-101350001D01*
G75*
G02*
X136450001Y-101600000I-249999J0D01*
G01*
G37*
G36*
G01*
X136450001Y-99550000D02*
X135549999Y-99550000D01*
G75*
G02*
X135300000Y-99300001I0J249999D01*
G01*
X135300000Y-98649999D01*
G75*
G02*
X135549999Y-98400000I249999J0D01*
G01*
X136450001Y-98400000D01*
G75*
G02*
X136700000Y-98649999I0J-249999D01*
G01*
X136700000Y-99300001D01*
G75*
G02*
X136450001Y-99550000I-249999J0D01*
G01*
G37*
G36*
G01*
X92050000Y-79549999D02*
X92050000Y-80450001D01*
G75*
G02*
X91800001Y-80700000I-249999J0D01*
G01*
X91149999Y-80700000D01*
G75*
G02*
X90900000Y-80450001I0J249999D01*
G01*
X90900000Y-79549999D01*
G75*
G02*
X91149999Y-79300000I249999J0D01*
G01*
X91800001Y-79300000D01*
G75*
G02*
X92050000Y-79549999I0J-249999D01*
G01*
G37*
G36*
G01*
X94100000Y-79549999D02*
X94100000Y-80450001D01*
G75*
G02*
X93850001Y-80700000I-249999J0D01*
G01*
X93199999Y-80700000D01*
G75*
G02*
X92950000Y-80450001I0J249999D01*
G01*
X92950000Y-79549999D01*
G75*
G02*
X93199999Y-79300000I249999J0D01*
G01*
X93850001Y-79300000D01*
G75*
G02*
X94100000Y-79549999I0J-249999D01*
G01*
G37*
G36*
G01*
X137950000Y-65450001D02*
X137950000Y-64549999D01*
G75*
G02*
X138199999Y-64300000I249999J0D01*
G01*
X138850001Y-64300000D01*
G75*
G02*
X139100000Y-64549999I0J-249999D01*
G01*
X139100000Y-65450001D01*
G75*
G02*
X138850001Y-65700000I-249999J0D01*
G01*
X138199999Y-65700000D01*
G75*
G02*
X137950000Y-65450001I0J249999D01*
G01*
G37*
G36*
G01*
X135900000Y-65450001D02*
X135900000Y-64549999D01*
G75*
G02*
X136149999Y-64300000I249999J0D01*
G01*
X136800001Y-64300000D01*
G75*
G02*
X137050000Y-64549999I0J-249999D01*
G01*
X137050000Y-65450001D01*
G75*
G02*
X136800001Y-65700000I-249999J0D01*
G01*
X136149999Y-65700000D01*
G75*
G02*
X135900000Y-65450001I0J249999D01*
G01*
G37*
G36*
G01*
X139450001Y-101600000D02*
X138549999Y-101600000D01*
G75*
G02*
X138300000Y-101350001I0J249999D01*
G01*
X138300000Y-100699999D01*
G75*
G02*
X138549999Y-100450000I249999J0D01*
G01*
X139450001Y-100450000D01*
G75*
G02*
X139700000Y-100699999I0J-249999D01*
G01*
X139700000Y-101350001D01*
G75*
G02*
X139450001Y-101600000I-249999J0D01*
G01*
G37*
G36*
G01*
X139450001Y-99550000D02*
X138549999Y-99550000D01*
G75*
G02*
X138300000Y-99300001I0J249999D01*
G01*
X138300000Y-98649999D01*
G75*
G02*
X138549999Y-98400000I249999J0D01*
G01*
X139450001Y-98400000D01*
G75*
G02*
X139700000Y-98649999I0J-249999D01*
G01*
X139700000Y-99300001D01*
G75*
G02*
X139450001Y-99550000I-249999J0D01*
G01*
G37*
G36*
G01*
X129100000Y-52549999D02*
X129100000Y-53450001D01*
G75*
G02*
X128850001Y-53700000I-249999J0D01*
G01*
X128199999Y-53700000D01*
G75*
G02*
X127950000Y-53450001I0J249999D01*
G01*
X127950000Y-52549999D01*
G75*
G02*
X128199999Y-52300000I249999J0D01*
G01*
X128850001Y-52300000D01*
G75*
G02*
X129100000Y-52549999I0J-249999D01*
G01*
G37*
G36*
G01*
X127050000Y-52549999D02*
X127050000Y-53450001D01*
G75*
G02*
X126800001Y-53700000I-249999J0D01*
G01*
X126149999Y-53700000D01*
G75*
G02*
X125900000Y-53450001I0J249999D01*
G01*
X125900000Y-52549999D01*
G75*
G02*
X126149999Y-52300000I249999J0D01*
G01*
X126800001Y-52300000D01*
G75*
G02*
X127050000Y-52549999I0J-249999D01*
G01*
G37*
G36*
G01*
X75900000Y-71700001D02*
X75900000Y-70799999D01*
G75*
G02*
X76149999Y-70550000I249999J0D01*
G01*
X76800001Y-70550000D01*
G75*
G02*
X77050000Y-70799999I0J-249999D01*
G01*
X77050000Y-71700001D01*
G75*
G02*
X76800001Y-71950000I-249999J0D01*
G01*
X76149999Y-71950000D01*
G75*
G02*
X75900000Y-71700001I0J249999D01*
G01*
G37*
G36*
G01*
X77950000Y-71700001D02*
X77950000Y-70799999D01*
G75*
G02*
X78199999Y-70550000I249999J0D01*
G01*
X78850001Y-70550000D01*
G75*
G02*
X79100000Y-70799999I0J-249999D01*
G01*
X79100000Y-71700001D01*
G75*
G02*
X78850001Y-71950000I-249999J0D01*
G01*
X78199999Y-71950000D01*
G75*
G02*
X77950000Y-71700001I0J249999D01*
G01*
G37*
G36*
G01*
X85450000Y-81950001D02*
X85450000Y-81049999D01*
G75*
G02*
X85699999Y-80800000I249999J0D01*
G01*
X86350001Y-80800000D01*
G75*
G02*
X86600000Y-81049999I0J-249999D01*
G01*
X86600000Y-81950001D01*
G75*
G02*
X86350001Y-82200000I-249999J0D01*
G01*
X85699999Y-82200000D01*
G75*
G02*
X85450000Y-81950001I0J249999D01*
G01*
G37*
G36*
G01*
X83400000Y-81950001D02*
X83400000Y-81049999D01*
G75*
G02*
X83649999Y-80800000I249999J0D01*
G01*
X84300001Y-80800000D01*
G75*
G02*
X84550000Y-81049999I0J-249999D01*
G01*
X84550000Y-81950001D01*
G75*
G02*
X84300001Y-82200000I-249999J0D01*
G01*
X83649999Y-82200000D01*
G75*
G02*
X83400000Y-81950001I0J249999D01*
G01*
G37*
G36*
G01*
X68350000Y-70799999D02*
X68350000Y-71700001D01*
G75*
G02*
X68100001Y-71950000I-249999J0D01*
G01*
X67449999Y-71950000D01*
G75*
G02*
X67200000Y-71700001I0J249999D01*
G01*
X67200000Y-70799999D01*
G75*
G02*
X67449999Y-70550000I249999J0D01*
G01*
X68100001Y-70550000D01*
G75*
G02*
X68350000Y-70799999I0J-249999D01*
G01*
G37*
G36*
G01*
X66300000Y-70799999D02*
X66300000Y-71700001D01*
G75*
G02*
X66050001Y-71950000I-249999J0D01*
G01*
X65399999Y-71950000D01*
G75*
G02*
X65150000Y-71700001I0J249999D01*
G01*
X65150000Y-70799999D01*
G75*
G02*
X65399999Y-70550000I249999J0D01*
G01*
X66050001Y-70550000D01*
G75*
G02*
X66300000Y-70799999I0J-249999D01*
G01*
G37*
D19*
X61600000Y-97550000D03*
X58400000Y-97550000D03*
X61600000Y-102450000D03*
X58400000Y-102450000D03*
X83400000Y-102450000D03*
X86600000Y-102450000D03*
X83400000Y-97550000D03*
X86600000Y-97550000D03*
X126600000Y-97550000D03*
X123400000Y-97550000D03*
X126600000Y-102450000D03*
X123400000Y-102450000D03*
X148400000Y-102450000D03*
X151600000Y-102450000D03*
X148400000Y-97550000D03*
X151600000Y-97550000D03*
D20*
X122550000Y-79200000D03*
X124450000Y-79200000D03*
X123500000Y-75800000D03*
D14*
X86746574Y-60950000D03*
X86746574Y-59050000D03*
X83346574Y-60000000D03*
G36*
G01*
X48400000Y-55200001D02*
X48400000Y-54299999D01*
G75*
G02*
X48649999Y-54050000I249999J0D01*
G01*
X49300001Y-54050000D01*
G75*
G02*
X49550000Y-54299999I0J-249999D01*
G01*
X49550000Y-55200001D01*
G75*
G02*
X49300001Y-55450000I-249999J0D01*
G01*
X48649999Y-55450000D01*
G75*
G02*
X48400000Y-55200001I0J249999D01*
G01*
G37*
G36*
G01*
X50450000Y-55200001D02*
X50450000Y-54299999D01*
G75*
G02*
X50699999Y-54050000I249999J0D01*
G01*
X51350001Y-54050000D01*
G75*
G02*
X51600000Y-54299999I0J-249999D01*
G01*
X51600000Y-55200001D01*
G75*
G02*
X51350001Y-55450000I-249999J0D01*
G01*
X50699999Y-55450000D01*
G75*
G02*
X50450000Y-55200001I0J249999D01*
G01*
G37*
G36*
G01*
X49550000Y-56549999D02*
X49550000Y-57450001D01*
G75*
G02*
X49300001Y-57700000I-249999J0D01*
G01*
X48649999Y-57700000D01*
G75*
G02*
X48400000Y-57450001I0J249999D01*
G01*
X48400000Y-56549999D01*
G75*
G02*
X48649999Y-56300000I249999J0D01*
G01*
X49300001Y-56300000D01*
G75*
G02*
X49550000Y-56549999I0J-249999D01*
G01*
G37*
G36*
G01*
X51600000Y-56549999D02*
X51600000Y-57450001D01*
G75*
G02*
X51350001Y-57700000I-249999J0D01*
G01*
X50699999Y-57700000D01*
G75*
G02*
X50450000Y-57450001I0J249999D01*
G01*
X50450000Y-56549999D01*
G75*
G02*
X50699999Y-56300000I249999J0D01*
G01*
X51350001Y-56300000D01*
G75*
G02*
X51600000Y-56549999I0J-249999D01*
G01*
G37*
G36*
G01*
X137950001Y-106600000D02*
X137049999Y-106600000D01*
G75*
G02*
X136800000Y-106350001I0J249999D01*
G01*
X136800000Y-105699999D01*
G75*
G02*
X137049999Y-105450000I249999J0D01*
G01*
X137950001Y-105450000D01*
G75*
G02*
X138200000Y-105699999I0J-249999D01*
G01*
X138200000Y-106350001D01*
G75*
G02*
X137950001Y-106600000I-249999J0D01*
G01*
G37*
G36*
G01*
X137950001Y-104550000D02*
X137049999Y-104550000D01*
G75*
G02*
X136800000Y-104300001I0J249999D01*
G01*
X136800000Y-103649999D01*
G75*
G02*
X137049999Y-103400000I249999J0D01*
G01*
X137950001Y-103400000D01*
G75*
G02*
X138200000Y-103649999I0J-249999D01*
G01*
X138200000Y-104300001D01*
G75*
G02*
X137950001Y-104550000I-249999J0D01*
G01*
G37*
G36*
G01*
X105450001Y-104550000D02*
X104549999Y-104550000D01*
G75*
G02*
X104300000Y-104300001I0J249999D01*
G01*
X104300000Y-103649999D01*
G75*
G02*
X104549999Y-103400000I249999J0D01*
G01*
X105450001Y-103400000D01*
G75*
G02*
X105700000Y-103649999I0J-249999D01*
G01*
X105700000Y-104300001D01*
G75*
G02*
X105450001Y-104550000I-249999J0D01*
G01*
G37*
G36*
G01*
X105450001Y-106600000D02*
X104549999Y-106600000D01*
G75*
G02*
X104300000Y-106350001I0J249999D01*
G01*
X104300000Y-105699999D01*
G75*
G02*
X104549999Y-105450000I249999J0D01*
G01*
X105450001Y-105450000D01*
G75*
G02*
X105700000Y-105699999I0J-249999D01*
G01*
X105700000Y-106350001D01*
G75*
G02*
X105450001Y-106600000I-249999J0D01*
G01*
G37*
G36*
G01*
X72950001Y-106600000D02*
X72049999Y-106600000D01*
G75*
G02*
X71800000Y-106350001I0J249999D01*
G01*
X71800000Y-105699999D01*
G75*
G02*
X72049999Y-105450000I249999J0D01*
G01*
X72950001Y-105450000D01*
G75*
G02*
X73200000Y-105699999I0J-249999D01*
G01*
X73200000Y-106350001D01*
G75*
G02*
X72950001Y-106600000I-249999J0D01*
G01*
G37*
G36*
G01*
X72950001Y-104550000D02*
X72049999Y-104550000D01*
G75*
G02*
X71800000Y-104300001I0J249999D01*
G01*
X71800000Y-103649999D01*
G75*
G02*
X72049999Y-103400000I249999J0D01*
G01*
X72950001Y-103400000D01*
G75*
G02*
X73200000Y-103649999I0J-249999D01*
G01*
X73200000Y-104300001D01*
G75*
G02*
X72950001Y-104550000I-249999J0D01*
G01*
G37*
G36*
G01*
X135900000Y-62950001D02*
X135900000Y-62049999D01*
G75*
G02*
X136149999Y-61800000I249999J0D01*
G01*
X136800001Y-61800000D01*
G75*
G02*
X137050000Y-62049999I0J-249999D01*
G01*
X137050000Y-62950001D01*
G75*
G02*
X136800001Y-63200000I-249999J0D01*
G01*
X136149999Y-63200000D01*
G75*
G02*
X135900000Y-62950001I0J249999D01*
G01*
G37*
G36*
G01*
X137950000Y-62950001D02*
X137950000Y-62049999D01*
G75*
G02*
X138199999Y-61800000I249999J0D01*
G01*
X138850001Y-61800000D01*
G75*
G02*
X139100000Y-62049999I0J-249999D01*
G01*
X139100000Y-62950001D01*
G75*
G02*
X138850001Y-63200000I-249999J0D01*
G01*
X138199999Y-63200000D01*
G75*
G02*
X137950000Y-62950001I0J249999D01*
G01*
G37*
G36*
G01*
X137950000Y-60450001D02*
X137950000Y-59549999D01*
G75*
G02*
X138199999Y-59300000I249999J0D01*
G01*
X138850001Y-59300000D01*
G75*
G02*
X139100000Y-59549999I0J-249999D01*
G01*
X139100000Y-60450001D01*
G75*
G02*
X138850001Y-60700000I-249999J0D01*
G01*
X138199999Y-60700000D01*
G75*
G02*
X137950000Y-60450001I0J249999D01*
G01*
G37*
G36*
G01*
X135900000Y-60450001D02*
X135900000Y-59549999D01*
G75*
G02*
X136149999Y-59300000I249999J0D01*
G01*
X136800001Y-59300000D01*
G75*
G02*
X137050000Y-59549999I0J-249999D01*
G01*
X137050000Y-60450001D01*
G75*
G02*
X136800001Y-60700000I-249999J0D01*
G01*
X136149999Y-60700000D01*
G75*
G02*
X135900000Y-60450001I0J249999D01*
G01*
G37*
G36*
G01*
X119450000Y-56950001D02*
X119450000Y-56049999D01*
G75*
G02*
X119699999Y-55800000I249999J0D01*
G01*
X120350001Y-55800000D01*
G75*
G02*
X120600000Y-56049999I0J-249999D01*
G01*
X120600000Y-56950001D01*
G75*
G02*
X120350001Y-57200000I-249999J0D01*
G01*
X119699999Y-57200000D01*
G75*
G02*
X119450000Y-56950001I0J249999D01*
G01*
G37*
G36*
G01*
X117400000Y-56950001D02*
X117400000Y-56049999D01*
G75*
G02*
X117649999Y-55800000I249999J0D01*
G01*
X118300001Y-55800000D01*
G75*
G02*
X118550000Y-56049999I0J-249999D01*
G01*
X118550000Y-56950001D01*
G75*
G02*
X118300001Y-57200000I-249999J0D01*
G01*
X117649999Y-57200000D01*
G75*
G02*
X117400000Y-56950001I0J249999D01*
G01*
G37*
G36*
G01*
X117400000Y-62950001D02*
X117400000Y-62049999D01*
G75*
G02*
X117649999Y-61800000I249999J0D01*
G01*
X118300001Y-61800000D01*
G75*
G02*
X118550000Y-62049999I0J-249999D01*
G01*
X118550000Y-62950001D01*
G75*
G02*
X118300001Y-63200000I-249999J0D01*
G01*
X117649999Y-63200000D01*
G75*
G02*
X117400000Y-62950001I0J249999D01*
G01*
G37*
G36*
G01*
X119450000Y-62950001D02*
X119450000Y-62049999D01*
G75*
G02*
X119699999Y-61800000I249999J0D01*
G01*
X120350001Y-61800000D01*
G75*
G02*
X120600000Y-62049999I0J-249999D01*
G01*
X120600000Y-62950001D01*
G75*
G02*
X120350001Y-63200000I-249999J0D01*
G01*
X119699999Y-63200000D01*
G75*
G02*
X119450000Y-62950001I0J249999D01*
G01*
G37*
G36*
G01*
X142050000Y-54549999D02*
X142050000Y-55450001D01*
G75*
G02*
X141800001Y-55700000I-249999J0D01*
G01*
X141149999Y-55700000D01*
G75*
G02*
X140900000Y-55450001I0J249999D01*
G01*
X140900000Y-54549999D01*
G75*
G02*
X141149999Y-54300000I249999J0D01*
G01*
X141800001Y-54300000D01*
G75*
G02*
X142050000Y-54549999I0J-249999D01*
G01*
G37*
G36*
G01*
X144100000Y-54549999D02*
X144100000Y-55450001D01*
G75*
G02*
X143850001Y-55700000I-249999J0D01*
G01*
X143199999Y-55700000D01*
G75*
G02*
X142950000Y-55450001I0J249999D01*
G01*
X142950000Y-54549999D01*
G75*
G02*
X143199999Y-54300000I249999J0D01*
G01*
X143850001Y-54300000D01*
G75*
G02*
X144100000Y-54549999I0J-249999D01*
G01*
G37*
G36*
G01*
X144100000Y-57049999D02*
X144100000Y-57950001D01*
G75*
G02*
X143850001Y-58200000I-249999J0D01*
G01*
X143199999Y-58200000D01*
G75*
G02*
X142950000Y-57950001I0J249999D01*
G01*
X142950000Y-57049999D01*
G75*
G02*
X143199999Y-56800000I249999J0D01*
G01*
X143850001Y-56800000D01*
G75*
G02*
X144100000Y-57049999I0J-249999D01*
G01*
G37*
G36*
G01*
X142050000Y-57049999D02*
X142050000Y-57950001D01*
G75*
G02*
X141800001Y-58200000I-249999J0D01*
G01*
X141149999Y-58200000D01*
G75*
G02*
X140900000Y-57950001I0J249999D01*
G01*
X140900000Y-57049999D01*
G75*
G02*
X141149999Y-56800000I249999J0D01*
G01*
X141800001Y-56800000D01*
G75*
G02*
X142050000Y-57049999I0J-249999D01*
G01*
G37*
G36*
G01*
X120450001Y-79100000D02*
X119549999Y-79100000D01*
G75*
G02*
X119300000Y-78850001I0J249999D01*
G01*
X119300000Y-78199999D01*
G75*
G02*
X119549999Y-77950000I249999J0D01*
G01*
X120450001Y-77950000D01*
G75*
G02*
X120700000Y-78199999I0J-249999D01*
G01*
X120700000Y-78850001D01*
G75*
G02*
X120450001Y-79100000I-249999J0D01*
G01*
G37*
G36*
G01*
X120450001Y-77050000D02*
X119549999Y-77050000D01*
G75*
G02*
X119300000Y-76800001I0J249999D01*
G01*
X119300000Y-76149999D01*
G75*
G02*
X119549999Y-75900000I249999J0D01*
G01*
X120450001Y-75900000D01*
G75*
G02*
X120700000Y-76149999I0J-249999D01*
G01*
X120700000Y-76800001D01*
G75*
G02*
X120450001Y-77050000I-249999J0D01*
G01*
G37*
G36*
G01*
X126049999Y-77950000D02*
X126950001Y-77950000D01*
G75*
G02*
X127200000Y-78199999I0J-249999D01*
G01*
X127200000Y-78850001D01*
G75*
G02*
X126950001Y-79100000I-249999J0D01*
G01*
X126049999Y-79100000D01*
G75*
G02*
X125800000Y-78850001I0J249999D01*
G01*
X125800000Y-78199999D01*
G75*
G02*
X126049999Y-77950000I249999J0D01*
G01*
G37*
G36*
G01*
X126049999Y-75900000D02*
X126950001Y-75900000D01*
G75*
G02*
X127200000Y-76149999I0J-249999D01*
G01*
X127200000Y-76800001D01*
G75*
G02*
X126950001Y-77050000I-249999J0D01*
G01*
X126049999Y-77050000D01*
G75*
G02*
X125800000Y-76800001I0J249999D01*
G01*
X125800000Y-76149999D01*
G75*
G02*
X126049999Y-75900000I249999J0D01*
G01*
G37*
G36*
G01*
X83400000Y-67200001D02*
X83400000Y-66299999D01*
G75*
G02*
X83649999Y-66050000I249999J0D01*
G01*
X84300001Y-66050000D01*
G75*
G02*
X84550000Y-66299999I0J-249999D01*
G01*
X84550000Y-67200001D01*
G75*
G02*
X84300001Y-67450000I-249999J0D01*
G01*
X83649999Y-67450000D01*
G75*
G02*
X83400000Y-67200001I0J249999D01*
G01*
G37*
G36*
G01*
X85450000Y-67200001D02*
X85450000Y-66299999D01*
G75*
G02*
X85699999Y-66050000I249999J0D01*
G01*
X86350001Y-66050000D01*
G75*
G02*
X86600000Y-66299999I0J-249999D01*
G01*
X86600000Y-67200001D01*
G75*
G02*
X86350001Y-67450000I-249999J0D01*
G01*
X85699999Y-67450000D01*
G75*
G02*
X85450000Y-67200001I0J249999D01*
G01*
G37*
G36*
G01*
X85450000Y-57450001D02*
X85450000Y-56549999D01*
G75*
G02*
X85699999Y-56300000I249999J0D01*
G01*
X86350001Y-56300000D01*
G75*
G02*
X86600000Y-56549999I0J-249999D01*
G01*
X86600000Y-57450001D01*
G75*
G02*
X86350001Y-57700000I-249999J0D01*
G01*
X85699999Y-57700000D01*
G75*
G02*
X85450000Y-57450001I0J249999D01*
G01*
G37*
G36*
G01*
X83400000Y-57450001D02*
X83400000Y-56549999D01*
G75*
G02*
X83649999Y-56300000I249999J0D01*
G01*
X84300001Y-56300000D01*
G75*
G02*
X84550000Y-56549999I0J-249999D01*
G01*
X84550000Y-57450001D01*
G75*
G02*
X84300001Y-57700000I-249999J0D01*
G01*
X83649999Y-57700000D01*
G75*
G02*
X83400000Y-57450001I0J249999D01*
G01*
G37*
G36*
G01*
X90900000Y-70450001D02*
X90900000Y-69549999D01*
G75*
G02*
X91149999Y-69300000I249999J0D01*
G01*
X91800001Y-69300000D01*
G75*
G02*
X92050000Y-69549999I0J-249999D01*
G01*
X92050000Y-70450001D01*
G75*
G02*
X91800001Y-70700000I-249999J0D01*
G01*
X91149999Y-70700000D01*
G75*
G02*
X90900000Y-70450001I0J249999D01*
G01*
G37*
G36*
G01*
X92950000Y-70450001D02*
X92950000Y-69549999D01*
G75*
G02*
X93199999Y-69300000I249999J0D01*
G01*
X93850001Y-69300000D01*
G75*
G02*
X94100000Y-69549999I0J-249999D01*
G01*
X94100000Y-70450001D01*
G75*
G02*
X93850001Y-70700000I-249999J0D01*
G01*
X93199999Y-70700000D01*
G75*
G02*
X92950000Y-70450001I0J249999D01*
G01*
G37*
G36*
G01*
X86600000Y-62549999D02*
X86600000Y-63450001D01*
G75*
G02*
X86350001Y-63700000I-249999J0D01*
G01*
X85699999Y-63700000D01*
G75*
G02*
X85450000Y-63450001I0J249999D01*
G01*
X85450000Y-62549999D01*
G75*
G02*
X85699999Y-62300000I249999J0D01*
G01*
X86350001Y-62300000D01*
G75*
G02*
X86600000Y-62549999I0J-249999D01*
G01*
G37*
G36*
G01*
X84550000Y-62549999D02*
X84550000Y-63450001D01*
G75*
G02*
X84300001Y-63700000I-249999J0D01*
G01*
X83649999Y-63700000D01*
G75*
G02*
X83400000Y-63450001I0J249999D01*
G01*
X83400000Y-62549999D01*
G75*
G02*
X83649999Y-62300000I249999J0D01*
G01*
X84300001Y-62300000D01*
G75*
G02*
X84550000Y-62549999I0J-249999D01*
G01*
G37*
G36*
G01*
X84550000Y-72549999D02*
X84550000Y-73450001D01*
G75*
G02*
X84300001Y-73700000I-249999J0D01*
G01*
X83649999Y-73700000D01*
G75*
G02*
X83400000Y-73450001I0J249999D01*
G01*
X83400000Y-72549999D01*
G75*
G02*
X83649999Y-72300000I249999J0D01*
G01*
X84300001Y-72300000D01*
G75*
G02*
X84550000Y-72549999I0J-249999D01*
G01*
G37*
G36*
G01*
X86600000Y-72549999D02*
X86600000Y-73450001D01*
G75*
G02*
X86350001Y-73700000I-249999J0D01*
G01*
X85699999Y-73700000D01*
G75*
G02*
X85450000Y-73450001I0J249999D01*
G01*
X85450000Y-72549999D01*
G75*
G02*
X85699999Y-72300000I249999J0D01*
G01*
X86350001Y-72300000D01*
G75*
G02*
X86600000Y-72549999I0J-249999D01*
G01*
G37*
G36*
G01*
X90900000Y-73450001D02*
X90900000Y-72549999D01*
G75*
G02*
X91149999Y-72300000I249999J0D01*
G01*
X91800001Y-72300000D01*
G75*
G02*
X92050000Y-72549999I0J-249999D01*
G01*
X92050000Y-73450001D01*
G75*
G02*
X91800001Y-73700000I-249999J0D01*
G01*
X91149999Y-73700000D01*
G75*
G02*
X90900000Y-73450001I0J249999D01*
G01*
G37*
G36*
G01*
X92950000Y-73450001D02*
X92950000Y-72549999D01*
G75*
G02*
X93199999Y-72300000I249999J0D01*
G01*
X93850001Y-72300000D01*
G75*
G02*
X94100000Y-72549999I0J-249999D01*
G01*
X94100000Y-73450001D01*
G75*
G02*
X93850001Y-73700000I-249999J0D01*
G01*
X93199999Y-73700000D01*
G75*
G02*
X92950000Y-73450001I0J249999D01*
G01*
G37*
G36*
G01*
X92950000Y-67200001D02*
X92950000Y-66299999D01*
G75*
G02*
X93199999Y-66050000I249999J0D01*
G01*
X93850001Y-66050000D01*
G75*
G02*
X94100000Y-66299999I0J-249999D01*
G01*
X94100000Y-67200001D01*
G75*
G02*
X93850001Y-67450000I-249999J0D01*
G01*
X93199999Y-67450000D01*
G75*
G02*
X92950000Y-67200001I0J249999D01*
G01*
G37*
G36*
G01*
X90900000Y-67200001D02*
X90900000Y-66299999D01*
G75*
G02*
X91149999Y-66050000I249999J0D01*
G01*
X91800001Y-66050000D01*
G75*
G02*
X92050000Y-66299999I0J-249999D01*
G01*
X92050000Y-67200001D01*
G75*
G02*
X91800001Y-67450000I-249999J0D01*
G01*
X91149999Y-67450000D01*
G75*
G02*
X90900000Y-67200001I0J249999D01*
G01*
G37*
G36*
G01*
X117950001Y-77050000D02*
X117049999Y-77050000D01*
G75*
G02*
X116800000Y-76800001I0J249999D01*
G01*
X116800000Y-76149999D01*
G75*
G02*
X117049999Y-75900000I249999J0D01*
G01*
X117950001Y-75900000D01*
G75*
G02*
X118200000Y-76149999I0J-249999D01*
G01*
X118200000Y-76800001D01*
G75*
G02*
X117950001Y-77050000I-249999J0D01*
G01*
G37*
G36*
G01*
X117950001Y-79100000D02*
X117049999Y-79100000D01*
G75*
G02*
X116800000Y-78850001I0J249999D01*
G01*
X116800000Y-78199999D01*
G75*
G02*
X117049999Y-77950000I249999J0D01*
G01*
X117950001Y-77950000D01*
G75*
G02*
X118200000Y-78199999I0J-249999D01*
G01*
X118200000Y-78850001D01*
G75*
G02*
X117950001Y-79100000I-249999J0D01*
G01*
G37*
G36*
G01*
X72050000Y-54549999D02*
X72050000Y-55450001D01*
G75*
G02*
X71800001Y-55700000I-249999J0D01*
G01*
X71149999Y-55700000D01*
G75*
G02*
X70900000Y-55450001I0J249999D01*
G01*
X70900000Y-54549999D01*
G75*
G02*
X71149999Y-54300000I249999J0D01*
G01*
X71800001Y-54300000D01*
G75*
G02*
X72050000Y-54549999I0J-249999D01*
G01*
G37*
G36*
G01*
X74100000Y-54549999D02*
X74100000Y-55450001D01*
G75*
G02*
X73850001Y-55700000I-249999J0D01*
G01*
X73199999Y-55700000D01*
G75*
G02*
X72950000Y-55450001I0J249999D01*
G01*
X72950000Y-54549999D01*
G75*
G02*
X73199999Y-54300000I249999J0D01*
G01*
X73850001Y-54300000D01*
G75*
G02*
X74100000Y-54549999I0J-249999D01*
G01*
G37*
G36*
G01*
X57200000Y-65175000D02*
X57200000Y-67325000D01*
G75*
G02*
X56950000Y-67575000I-250000J0D01*
G01*
X56025000Y-67575000D01*
G75*
G02*
X55775000Y-67325000I0J250000D01*
G01*
X55775000Y-65175000D01*
G75*
G02*
X56025000Y-64925000I250000J0D01*
G01*
X56950000Y-64925000D01*
G75*
G02*
X57200000Y-65175000I0J-250000D01*
G01*
G37*
G36*
G01*
X54225000Y-65175000D02*
X54225000Y-67325000D01*
G75*
G02*
X53975000Y-67575000I-250000J0D01*
G01*
X53050000Y-67575000D01*
G75*
G02*
X52800000Y-67325000I0J250000D01*
G01*
X52800000Y-65175000D01*
G75*
G02*
X53050000Y-64925000I250000J0D01*
G01*
X53975000Y-64925000D01*
G75*
G02*
X54225000Y-65175000I0J-250000D01*
G01*
G37*
G36*
G01*
X43900000Y-55200001D02*
X43900000Y-54299999D01*
G75*
G02*
X44149999Y-54050000I249999J0D01*
G01*
X44800001Y-54050000D01*
G75*
G02*
X45050000Y-54299999I0J-249999D01*
G01*
X45050000Y-55200001D01*
G75*
G02*
X44800001Y-55450000I-249999J0D01*
G01*
X44149999Y-55450000D01*
G75*
G02*
X43900000Y-55200001I0J249999D01*
G01*
G37*
G36*
G01*
X45950000Y-55200001D02*
X45950000Y-54299999D01*
G75*
G02*
X46199999Y-54050000I249999J0D01*
G01*
X46850001Y-54050000D01*
G75*
G02*
X47100000Y-54299999I0J-249999D01*
G01*
X47100000Y-55200001D01*
G75*
G02*
X46850001Y-55450000I-249999J0D01*
G01*
X46199999Y-55450000D01*
G75*
G02*
X45950000Y-55200001I0J249999D01*
G01*
G37*
D21*
X155000000Y-71700000D03*
X155000000Y-66300000D03*
G36*
G01*
X161450000Y-71875000D02*
X158550000Y-71875000D01*
G75*
G02*
X158300000Y-71625000I0J250000D01*
G01*
X158300000Y-70825000D01*
G75*
G02*
X158550000Y-70575000I250000J0D01*
G01*
X161450000Y-70575000D01*
G75*
G02*
X161700000Y-70825000I0J-250000D01*
G01*
X161700000Y-71625000D01*
G75*
G02*
X161450000Y-71875000I-250000J0D01*
G01*
G37*
G36*
G01*
X161450000Y-67425000D02*
X158550000Y-67425000D01*
G75*
G02*
X158300000Y-67175000I0J250000D01*
G01*
X158300000Y-66375000D01*
G75*
G02*
X158550000Y-66125000I250000J0D01*
G01*
X161450000Y-66125000D01*
G75*
G02*
X161700000Y-66375000I0J-250000D01*
G01*
X161700000Y-67175000D01*
G75*
G02*
X161450000Y-67425000I-250000J0D01*
G01*
G37*
G36*
G01*
X45950000Y-52950001D02*
X45950000Y-52049999D01*
G75*
G02*
X46199999Y-51800000I249999J0D01*
G01*
X46850001Y-51800000D01*
G75*
G02*
X47100000Y-52049999I0J-249999D01*
G01*
X47100000Y-52950001D01*
G75*
G02*
X46850001Y-53200000I-249999J0D01*
G01*
X46199999Y-53200000D01*
G75*
G02*
X45950000Y-52950001I0J249999D01*
G01*
G37*
G36*
G01*
X43900000Y-52950001D02*
X43900000Y-52049999D01*
G75*
G02*
X44149999Y-51800000I249999J0D01*
G01*
X44800001Y-51800000D01*
G75*
G02*
X45050000Y-52049999I0J-249999D01*
G01*
X45050000Y-52950001D01*
G75*
G02*
X44800001Y-53200000I-249999J0D01*
G01*
X44149999Y-53200000D01*
G75*
G02*
X43900000Y-52950001I0J249999D01*
G01*
G37*
G36*
G01*
X58450000Y-73005000D02*
X58450000Y-73305000D01*
G75*
G02*
X58300000Y-73455000I-150000J0D01*
G01*
X56650000Y-73455000D01*
G75*
G02*
X56500000Y-73305000I0J150000D01*
G01*
X56500000Y-73005000D01*
G75*
G02*
X56650000Y-72855000I150000J0D01*
G01*
X58300000Y-72855000D01*
G75*
G02*
X58450000Y-73005000I0J-150000D01*
G01*
G37*
G36*
G01*
X58450000Y-71735000D02*
X58450000Y-72035000D01*
G75*
G02*
X58300000Y-72185000I-150000J0D01*
G01*
X56650000Y-72185000D01*
G75*
G02*
X56500000Y-72035000I0J150000D01*
G01*
X56500000Y-71735000D01*
G75*
G02*
X56650000Y-71585000I150000J0D01*
G01*
X58300000Y-71585000D01*
G75*
G02*
X58450000Y-71735000I0J-150000D01*
G01*
G37*
G36*
G01*
X58450000Y-70465000D02*
X58450000Y-70765000D01*
G75*
G02*
X58300000Y-70915000I-150000J0D01*
G01*
X56650000Y-70915000D01*
G75*
G02*
X56500000Y-70765000I0J150000D01*
G01*
X56500000Y-70465000D01*
G75*
G02*
X56650000Y-70315000I150000J0D01*
G01*
X58300000Y-70315000D01*
G75*
G02*
X58450000Y-70465000I0J-150000D01*
G01*
G37*
G36*
G01*
X58450000Y-69195000D02*
X58450000Y-69495000D01*
G75*
G02*
X58300000Y-69645000I-150000J0D01*
G01*
X56650000Y-69645000D01*
G75*
G02*
X56500000Y-69495000I0J150000D01*
G01*
X56500000Y-69195000D01*
G75*
G02*
X56650000Y-69045000I150000J0D01*
G01*
X58300000Y-69045000D01*
G75*
G02*
X58450000Y-69195000I0J-150000D01*
G01*
G37*
G36*
G01*
X53500000Y-69195000D02*
X53500000Y-69495000D01*
G75*
G02*
X53350000Y-69645000I-150000J0D01*
G01*
X51700000Y-69645000D01*
G75*
G02*
X51550000Y-69495000I0J150000D01*
G01*
X51550000Y-69195000D01*
G75*
G02*
X51700000Y-69045000I150000J0D01*
G01*
X53350000Y-69045000D01*
G75*
G02*
X53500000Y-69195000I0J-150000D01*
G01*
G37*
G36*
G01*
X53500000Y-70465000D02*
X53500000Y-70765000D01*
G75*
G02*
X53350000Y-70915000I-150000J0D01*
G01*
X51700000Y-70915000D01*
G75*
G02*
X51550000Y-70765000I0J150000D01*
G01*
X51550000Y-70465000D01*
G75*
G02*
X51700000Y-70315000I150000J0D01*
G01*
X53350000Y-70315000D01*
G75*
G02*
X53500000Y-70465000I0J-150000D01*
G01*
G37*
G36*
G01*
X53500000Y-71735000D02*
X53500000Y-72035000D01*
G75*
G02*
X53350000Y-72185000I-150000J0D01*
G01*
X51700000Y-72185000D01*
G75*
G02*
X51550000Y-72035000I0J150000D01*
G01*
X51550000Y-71735000D01*
G75*
G02*
X51700000Y-71585000I150000J0D01*
G01*
X53350000Y-71585000D01*
G75*
G02*
X53500000Y-71735000I0J-150000D01*
G01*
G37*
G36*
G01*
X53500000Y-73005000D02*
X53500000Y-73305000D01*
G75*
G02*
X53350000Y-73455000I-150000J0D01*
G01*
X51700000Y-73455000D01*
G75*
G02*
X51550000Y-73305000I0J150000D01*
G01*
X51550000Y-73005000D01*
G75*
G02*
X51700000Y-72855000I150000J0D01*
G01*
X53350000Y-72855000D01*
G75*
G02*
X53500000Y-73005000I0J-150000D01*
G01*
G37*
G36*
G01*
X88450000Y-79255000D02*
X88450000Y-79555000D01*
G75*
G02*
X88300000Y-79705000I-150000J0D01*
G01*
X86650000Y-79705000D01*
G75*
G02*
X86500000Y-79555000I0J150000D01*
G01*
X86500000Y-79255000D01*
G75*
G02*
X86650000Y-79105000I150000J0D01*
G01*
X88300000Y-79105000D01*
G75*
G02*
X88450000Y-79255000I0J-150000D01*
G01*
G37*
G36*
G01*
X88450000Y-77985000D02*
X88450000Y-78285000D01*
G75*
G02*
X88300000Y-78435000I-150000J0D01*
G01*
X86650000Y-78435000D01*
G75*
G02*
X86500000Y-78285000I0J150000D01*
G01*
X86500000Y-77985000D01*
G75*
G02*
X86650000Y-77835000I150000J0D01*
G01*
X88300000Y-77835000D01*
G75*
G02*
X88450000Y-77985000I0J-150000D01*
G01*
G37*
G36*
G01*
X88450000Y-76715000D02*
X88450000Y-77015000D01*
G75*
G02*
X88300000Y-77165000I-150000J0D01*
G01*
X86650000Y-77165000D01*
G75*
G02*
X86500000Y-77015000I0J150000D01*
G01*
X86500000Y-76715000D01*
G75*
G02*
X86650000Y-76565000I150000J0D01*
G01*
X88300000Y-76565000D01*
G75*
G02*
X88450000Y-76715000I0J-150000D01*
G01*
G37*
G36*
G01*
X88450000Y-75445000D02*
X88450000Y-75745000D01*
G75*
G02*
X88300000Y-75895000I-150000J0D01*
G01*
X86650000Y-75895000D01*
G75*
G02*
X86500000Y-75745000I0J150000D01*
G01*
X86500000Y-75445000D01*
G75*
G02*
X86650000Y-75295000I150000J0D01*
G01*
X88300000Y-75295000D01*
G75*
G02*
X88450000Y-75445000I0J-150000D01*
G01*
G37*
G36*
G01*
X83500000Y-75445000D02*
X83500000Y-75745000D01*
G75*
G02*
X83350000Y-75895000I-150000J0D01*
G01*
X81700000Y-75895000D01*
G75*
G02*
X81550000Y-75745000I0J150000D01*
G01*
X81550000Y-75445000D01*
G75*
G02*
X81700000Y-75295000I150000J0D01*
G01*
X83350000Y-75295000D01*
G75*
G02*
X83500000Y-75445000I0J-150000D01*
G01*
G37*
G36*
G01*
X83500000Y-76715000D02*
X83500000Y-77015000D01*
G75*
G02*
X83350000Y-77165000I-150000J0D01*
G01*
X81700000Y-77165000D01*
G75*
G02*
X81550000Y-77015000I0J150000D01*
G01*
X81550000Y-76715000D01*
G75*
G02*
X81700000Y-76565000I150000J0D01*
G01*
X83350000Y-76565000D01*
G75*
G02*
X83500000Y-76715000I0J-150000D01*
G01*
G37*
G36*
G01*
X83500000Y-77985000D02*
X83500000Y-78285000D01*
G75*
G02*
X83350000Y-78435000I-150000J0D01*
G01*
X81700000Y-78435000D01*
G75*
G02*
X81550000Y-78285000I0J150000D01*
G01*
X81550000Y-77985000D01*
G75*
G02*
X81700000Y-77835000I150000J0D01*
G01*
X83350000Y-77835000D01*
G75*
G02*
X83500000Y-77985000I0J-150000D01*
G01*
G37*
G36*
G01*
X83500000Y-79255000D02*
X83500000Y-79555000D01*
G75*
G02*
X83350000Y-79705000I-150000J0D01*
G01*
X81700000Y-79705000D01*
G75*
G02*
X81550000Y-79555000I0J150000D01*
G01*
X81550000Y-79255000D01*
G75*
G02*
X81700000Y-79105000I150000J0D01*
G01*
X83350000Y-79105000D01*
G75*
G02*
X83500000Y-79255000I0J-150000D01*
G01*
G37*
G36*
G01*
X60900000Y-62700001D02*
X60900000Y-61799999D01*
G75*
G02*
X61149999Y-61550000I249999J0D01*
G01*
X61800001Y-61550000D01*
G75*
G02*
X62050000Y-61799999I0J-249999D01*
G01*
X62050000Y-62700001D01*
G75*
G02*
X61800001Y-62950000I-249999J0D01*
G01*
X61149999Y-62950000D01*
G75*
G02*
X60900000Y-62700001I0J249999D01*
G01*
G37*
G36*
G01*
X62950000Y-62700001D02*
X62950000Y-61799999D01*
G75*
G02*
X63199999Y-61550000I249999J0D01*
G01*
X63850001Y-61550000D01*
G75*
G02*
X64100000Y-61799999I0J-249999D01*
G01*
X64100000Y-62700001D01*
G75*
G02*
X63850001Y-62950000I-249999J0D01*
G01*
X63199999Y-62950000D01*
G75*
G02*
X62950000Y-62700001I0J249999D01*
G01*
G37*
D22*
X59200000Y-77250000D03*
X53800000Y-77250000D03*
G36*
G01*
X135900000Y-55450001D02*
X135900000Y-54549999D01*
G75*
G02*
X136149999Y-54300000I249999J0D01*
G01*
X136800001Y-54300000D01*
G75*
G02*
X137050000Y-54549999I0J-249999D01*
G01*
X137050000Y-55450001D01*
G75*
G02*
X136800001Y-55700000I-249999J0D01*
G01*
X136149999Y-55700000D01*
G75*
G02*
X135900000Y-55450001I0J249999D01*
G01*
G37*
G36*
G01*
X137950000Y-55450001D02*
X137950000Y-54549999D01*
G75*
G02*
X138199999Y-54300000I249999J0D01*
G01*
X138850001Y-54300000D01*
G75*
G02*
X139100000Y-54549999I0J-249999D01*
G01*
X139100000Y-55450001D01*
G75*
G02*
X138850001Y-55700000I-249999J0D01*
G01*
X138199999Y-55700000D01*
G75*
G02*
X137950000Y-55450001I0J249999D01*
G01*
G37*
G36*
G01*
X137950000Y-57950001D02*
X137950000Y-57049999D01*
G75*
G02*
X138199999Y-56800000I249999J0D01*
G01*
X138850001Y-56800000D01*
G75*
G02*
X139100000Y-57049999I0J-249999D01*
G01*
X139100000Y-57950001D01*
G75*
G02*
X138850001Y-58200000I-249999J0D01*
G01*
X138199999Y-58200000D01*
G75*
G02*
X137950000Y-57950001I0J249999D01*
G01*
G37*
G36*
G01*
X135900000Y-57950001D02*
X135900000Y-57049999D01*
G75*
G02*
X136149999Y-56800000I249999J0D01*
G01*
X136800001Y-56800000D01*
G75*
G02*
X137050000Y-57049999I0J-249999D01*
G01*
X137050000Y-57950001D01*
G75*
G02*
X136800001Y-58200000I-249999J0D01*
G01*
X136149999Y-58200000D01*
G75*
G02*
X135900000Y-57950001I0J249999D01*
G01*
G37*
G36*
G01*
X136600000Y-70549999D02*
X136600000Y-71450001D01*
G75*
G02*
X136350001Y-71700000I-249999J0D01*
G01*
X135699999Y-71700000D01*
G75*
G02*
X135450000Y-71450001I0J249999D01*
G01*
X135450000Y-70549999D01*
G75*
G02*
X135699999Y-70300000I249999J0D01*
G01*
X136350001Y-70300000D01*
G75*
G02*
X136600000Y-70549999I0J-249999D01*
G01*
G37*
G36*
G01*
X134550000Y-70549999D02*
X134550000Y-71450001D01*
G75*
G02*
X134300001Y-71700000I-249999J0D01*
G01*
X133649999Y-71700000D01*
G75*
G02*
X133400000Y-71450001I0J249999D01*
G01*
X133400000Y-70549999D01*
G75*
G02*
X133649999Y-70300000I249999J0D01*
G01*
X134300001Y-70300000D01*
G75*
G02*
X134550000Y-70549999I0J-249999D01*
G01*
G37*
G36*
G01*
X38375000Y-92200000D02*
X37125000Y-92200000D01*
G75*
G02*
X36875000Y-91950000I0J250000D01*
G01*
X36875000Y-91025000D01*
G75*
G02*
X37125000Y-90775000I250000J0D01*
G01*
X38375000Y-90775000D01*
G75*
G02*
X38625000Y-91025000I0J-250000D01*
G01*
X38625000Y-91950000D01*
G75*
G02*
X38375000Y-92200000I-250000J0D01*
G01*
G37*
G36*
G01*
X38375000Y-89225000D02*
X37125000Y-89225000D01*
G75*
G02*
X36875000Y-88975000I0J250000D01*
G01*
X36875000Y-88050000D01*
G75*
G02*
X37125000Y-87800000I250000J0D01*
G01*
X38375000Y-87800000D01*
G75*
G02*
X38625000Y-88050000I0J-250000D01*
G01*
X38625000Y-88975000D01*
G75*
G02*
X38375000Y-89225000I-250000J0D01*
G01*
G37*
D23*
X123900000Y-55775000D03*
X123900000Y-56425000D03*
X123900000Y-57075000D03*
X123900000Y-57725000D03*
X123900000Y-58375000D03*
X123900000Y-59025000D03*
X123900000Y-59675000D03*
X123900000Y-60325000D03*
X123900000Y-60975000D03*
X123900000Y-61625000D03*
X123900000Y-62275000D03*
X123900000Y-62925000D03*
X123900000Y-63575000D03*
X123900000Y-64225000D03*
X131100000Y-64225000D03*
X131100000Y-63575000D03*
X131100000Y-62925000D03*
X131100000Y-62275000D03*
X131100000Y-61625000D03*
X131100000Y-60975000D03*
X131100000Y-60325000D03*
X131100000Y-59675000D03*
X131100000Y-59025000D03*
X131100000Y-58375000D03*
X131100000Y-57725000D03*
X131100000Y-57075000D03*
X131100000Y-56425000D03*
X131100000Y-55775000D03*
G36*
G01*
X120600000Y-60049999D02*
X120600000Y-60950001D01*
G75*
G02*
X120350001Y-61200000I-249999J0D01*
G01*
X119699999Y-61200000D01*
G75*
G02*
X119450000Y-60950001I0J249999D01*
G01*
X119450000Y-60049999D01*
G75*
G02*
X119699999Y-59800000I249999J0D01*
G01*
X120350001Y-59800000D01*
G75*
G02*
X120600000Y-60049999I0J-249999D01*
G01*
G37*
G36*
G01*
X118550000Y-60049999D02*
X118550000Y-60950001D01*
G75*
G02*
X118300001Y-61200000I-249999J0D01*
G01*
X117649999Y-61200000D01*
G75*
G02*
X117400000Y-60950001I0J249999D01*
G01*
X117400000Y-60049999D01*
G75*
G02*
X117649999Y-59800000I249999J0D01*
G01*
X118300001Y-59800000D01*
G75*
G02*
X118550000Y-60049999I0J-249999D01*
G01*
G37*
G36*
G01*
X118550000Y-58049999D02*
X118550000Y-58950001D01*
G75*
G02*
X118300001Y-59200000I-249999J0D01*
G01*
X117649999Y-59200000D01*
G75*
G02*
X117400000Y-58950001I0J249999D01*
G01*
X117400000Y-58049999D01*
G75*
G02*
X117649999Y-57800000I249999J0D01*
G01*
X118300001Y-57800000D01*
G75*
G02*
X118550000Y-58049999I0J-249999D01*
G01*
G37*
G36*
G01*
X120600000Y-58049999D02*
X120600000Y-58950001D01*
G75*
G02*
X120350001Y-59200000I-249999J0D01*
G01*
X119699999Y-59200000D01*
G75*
G02*
X119450000Y-58950001I0J249999D01*
G01*
X119450000Y-58049999D01*
G75*
G02*
X119699999Y-57800000I249999J0D01*
G01*
X120350001Y-57800000D01*
G75*
G02*
X120600000Y-58049999I0J-249999D01*
G01*
G37*
D24*
X169950000Y-82280000D03*
X169950000Y-80000000D03*
X169950000Y-77720000D03*
D25*
X161975000Y-78475000D03*
X165325000Y-81525000D03*
X161975000Y-81525000D03*
X165325000Y-78475000D03*
G36*
G01*
X59950001Y-62850000D02*
X59049999Y-62850000D01*
G75*
G02*
X58800000Y-62600001I0J249999D01*
G01*
X58800000Y-61949999D01*
G75*
G02*
X59049999Y-61700000I249999J0D01*
G01*
X59950001Y-61700000D01*
G75*
G02*
X60200000Y-61949999I0J-249999D01*
G01*
X60200000Y-62600001D01*
G75*
G02*
X59950001Y-62850000I-249999J0D01*
G01*
G37*
G36*
G01*
X59950001Y-60800000D02*
X59049999Y-60800000D01*
G75*
G02*
X58800000Y-60550001I0J249999D01*
G01*
X58800000Y-59899999D01*
G75*
G02*
X59049999Y-59650000I249999J0D01*
G01*
X59950001Y-59650000D01*
G75*
G02*
X60200000Y-59899999I0J-249999D01*
G01*
X60200000Y-60550001D01*
G75*
G02*
X59950001Y-60800000I-249999J0D01*
G01*
G37*
D26*
X61550000Y-55500000D03*
X63450000Y-55500000D03*
X62500000Y-53500000D03*
G36*
G01*
X62050000Y-59549999D02*
X62050000Y-60450001D01*
G75*
G02*
X61800001Y-60700000I-249999J0D01*
G01*
X61149999Y-60700000D01*
G75*
G02*
X60900000Y-60450001I0J249999D01*
G01*
X60900000Y-59549999D01*
G75*
G02*
X61149999Y-59300000I249999J0D01*
G01*
X61800001Y-59300000D01*
G75*
G02*
X62050000Y-59549999I0J-249999D01*
G01*
G37*
G36*
G01*
X64100000Y-59549999D02*
X64100000Y-60450001D01*
G75*
G02*
X63850001Y-60700000I-249999J0D01*
G01*
X63199999Y-60700000D01*
G75*
G02*
X62950000Y-60450001I0J249999D01*
G01*
X62950000Y-59549999D01*
G75*
G02*
X63199999Y-59300000I249999J0D01*
G01*
X63850001Y-59300000D01*
G75*
G02*
X64100000Y-59549999I0J-249999D01*
G01*
G37*
G36*
G01*
X62050000Y-57299999D02*
X62050000Y-58200001D01*
G75*
G02*
X61800001Y-58450000I-249999J0D01*
G01*
X61149999Y-58450000D01*
G75*
G02*
X60900000Y-58200001I0J249999D01*
G01*
X60900000Y-57299999D01*
G75*
G02*
X61149999Y-57050000I249999J0D01*
G01*
X61800001Y-57050000D01*
G75*
G02*
X62050000Y-57299999I0J-249999D01*
G01*
G37*
G36*
G01*
X64100000Y-57299999D02*
X64100000Y-58200001D01*
G75*
G02*
X63850001Y-58450000I-249999J0D01*
G01*
X63199999Y-58450000D01*
G75*
G02*
X62950000Y-58200001I0J249999D01*
G01*
X62950000Y-57299999D01*
G75*
G02*
X63199999Y-57050000I249999J0D01*
G01*
X63850001Y-57050000D01*
G75*
G02*
X64100000Y-57299999I0J-249999D01*
G01*
G37*
G36*
G01*
X56600000Y-54299999D02*
X56600000Y-55200001D01*
G75*
G02*
X56350001Y-55450000I-249999J0D01*
G01*
X55699999Y-55450000D01*
G75*
G02*
X55450000Y-55200001I0J249999D01*
G01*
X55450000Y-54299999D01*
G75*
G02*
X55699999Y-54050000I249999J0D01*
G01*
X56350001Y-54050000D01*
G75*
G02*
X56600000Y-54299999I0J-249999D01*
G01*
G37*
G36*
G01*
X54550000Y-54299999D02*
X54550000Y-55200001D01*
G75*
G02*
X54300001Y-55450000I-249999J0D01*
G01*
X53649999Y-55450000D01*
G75*
G02*
X53400000Y-55200001I0J249999D01*
G01*
X53400000Y-54299999D01*
G75*
G02*
X53649999Y-54050000I249999J0D01*
G01*
X54300001Y-54050000D01*
G75*
G02*
X54550000Y-54299999I0J-249999D01*
G01*
G37*
G36*
G01*
X53400000Y-57450001D02*
X53400000Y-56549999D01*
G75*
G02*
X53649999Y-56300000I249999J0D01*
G01*
X54300001Y-56300000D01*
G75*
G02*
X54550000Y-56549999I0J-249999D01*
G01*
X54550000Y-57450001D01*
G75*
G02*
X54300001Y-57700000I-249999J0D01*
G01*
X53649999Y-57700000D01*
G75*
G02*
X53400000Y-57450001I0J249999D01*
G01*
G37*
G36*
G01*
X55450000Y-57450001D02*
X55450000Y-56549999D01*
G75*
G02*
X55699999Y-56300000I249999J0D01*
G01*
X56350001Y-56300000D01*
G75*
G02*
X56600000Y-56549999I0J-249999D01*
G01*
X56600000Y-57450001D01*
G75*
G02*
X56350001Y-57700000I-249999J0D01*
G01*
X55699999Y-57700000D01*
G75*
G02*
X55450000Y-57450001I0J249999D01*
G01*
G37*
G36*
G01*
X36950000Y-83475000D02*
X43050000Y-83475000D01*
G75*
G02*
X43300000Y-83725000I0J-250000D01*
G01*
X43300000Y-85025000D01*
G75*
G02*
X43050000Y-85275000I-250000J0D01*
G01*
X36950000Y-85275000D01*
G75*
G02*
X36700000Y-85025000I0J250000D01*
G01*
X36700000Y-83725000D01*
G75*
G02*
X36950000Y-83475000I250000J0D01*
G01*
G37*
G36*
G01*
X36950000Y-78225000D02*
X43050000Y-78225000D01*
G75*
G02*
X43300000Y-78475000I0J-250000D01*
G01*
X43300000Y-79775000D01*
G75*
G02*
X43050000Y-80025000I-250000J0D01*
G01*
X36950000Y-80025000D01*
G75*
G02*
X36700000Y-79775000I0J250000D01*
G01*
X36700000Y-78475000D01*
G75*
G02*
X36950000Y-78225000I250000J0D01*
G01*
G37*
G36*
G01*
X44450000Y-78225000D02*
X50550000Y-78225000D01*
G75*
G02*
X50800000Y-78475000I0J-250000D01*
G01*
X50800000Y-79775000D01*
G75*
G02*
X50550000Y-80025000I-250000J0D01*
G01*
X44450000Y-80025000D01*
G75*
G02*
X44200000Y-79775000I0J250000D01*
G01*
X44200000Y-78475000D01*
G75*
G02*
X44450000Y-78225000I250000J0D01*
G01*
G37*
G36*
G01*
X44450000Y-83475000D02*
X50550000Y-83475000D01*
G75*
G02*
X50800000Y-83725000I0J-250000D01*
G01*
X50800000Y-85025000D01*
G75*
G02*
X50550000Y-85275000I-250000J0D01*
G01*
X44450000Y-85275000D01*
G75*
G02*
X44200000Y-85025000I0J250000D01*
G01*
X44200000Y-83725000D01*
G75*
G02*
X44450000Y-83475000I250000J0D01*
G01*
G37*
G36*
G01*
X56600000Y-59049999D02*
X56600000Y-59950001D01*
G75*
G02*
X56350001Y-60200000I-249999J0D01*
G01*
X55699999Y-60200000D01*
G75*
G02*
X55450000Y-59950001I0J249999D01*
G01*
X55450000Y-59049999D01*
G75*
G02*
X55699999Y-58800000I249999J0D01*
G01*
X56350001Y-58800000D01*
G75*
G02*
X56600000Y-59049999I0J-249999D01*
G01*
G37*
G36*
G01*
X54550000Y-59049999D02*
X54550000Y-59950001D01*
G75*
G02*
X54300001Y-60200000I-249999J0D01*
G01*
X53649999Y-60200000D01*
G75*
G02*
X53400000Y-59950001I0J249999D01*
G01*
X53400000Y-59049999D01*
G75*
G02*
X53649999Y-58800000I249999J0D01*
G01*
X54300001Y-58800000D01*
G75*
G02*
X54550000Y-59049999I0J-249999D01*
G01*
G37*
D27*
X77580000Y-57800000D03*
X76310000Y-57800000D03*
X75040000Y-57800000D03*
X73770000Y-57800000D03*
X72500000Y-57800000D03*
X71230000Y-57800000D03*
X69960000Y-57800000D03*
X68690000Y-57800000D03*
X67420000Y-57800000D03*
X67420000Y-67200000D03*
X68690000Y-67200000D03*
X69960000Y-67200000D03*
X71230000Y-67200000D03*
X72500000Y-67200000D03*
X73770000Y-67200000D03*
X75040000Y-67200000D03*
X76310000Y-67200000D03*
X77580000Y-67200000D03*
D28*
X57200000Y-63475000D03*
X57200000Y-62825000D03*
X57200000Y-62175000D03*
X57200000Y-61525000D03*
X52800000Y-61525000D03*
X52800000Y-62175000D03*
X52800000Y-62825000D03*
X52800000Y-63475000D03*
M02*
