M48
; DRILL file {KiCad 5.1.7+dfsg1-1} date Tue Jan 19 22:49:01 2021
; FORMAT={-:-/ absolute / inch / decimal}
; #@! TF.CreationDate,2021-01-19T22:49:01+01:00
; #@! TF.GenerationSoftware,Kicad,Pcbnew,5.1.7+dfsg1-1
; #@! TF.FileFunction,Plated,1,2,PTH
FMAT,2
INCH
T1C0.0157
T2C0.0315
T3C0.0354
T4C0.0390
T5C0.0394
T6C0.0433
T7C0.0472
T8C0.0512
%
G90
G05
T1
X1.4764Y-2.5591
X1.4764Y-2.6575
X1.4764Y-2.7559
X1.4764Y-3.2185
X1.5748Y-2.5591
X1.5748Y-2.6575
X1.5748Y-2.7559
X1.5748Y-3.2185
X1.6732Y-2.5591
X1.6732Y-2.6575
X1.6732Y-2.7559
X1.6732Y-3.2185
X1.6929Y-2.0669
X1.7224Y-3.1201
X1.7717Y-2.5591
X1.7717Y-2.6575
X1.7717Y-2.7559
X1.7717Y-3.2185
X1.7717Y-3.5433
X1.7717Y-3.7402
X1.7717Y-3.937
X1.7717Y-4.1339
X1.7717Y-4.3307
X1.8701Y-2.5591
X1.8701Y-2.6575
X1.8701Y-2.7559
X1.8701Y-3.2185
X1.8799Y-2.2047
X1.8799Y-2.2638
X1.8799Y-2.1161
X1.9685Y-2.3622
X1.9685Y-2.4606
X1.9685Y-2.5591
X1.9685Y-2.6575
X1.9685Y-3.2185
X1.9685Y-3.7697
X1.9685Y-4.3307
X2.0079Y-2.2982
X2.0499Y-3.7822
X2.0669Y-2.1654
X2.0669Y-2.2933
X2.0669Y-2.3622
X2.0669Y-3.2185
X2.0669Y-3.3465
X2.0669Y-3.8091
X2.0669Y-2.2441
X2.1161Y-2.2933
X2.1358Y-2.4744
X2.1358Y-2.4311
X2.1654Y-4.3307
X2.1949Y-2.4705
X2.2047Y-2.2933
X2.2638Y-2.1654
X2.2638Y-2.2638
X2.3601Y-3.1475
X2.3622Y-2.2638
X2.3622Y-2.7559
X2.3622Y-2.8543
X2.3622Y-2.9528
X2.3622Y-3.8386
X2.3622Y-4.3307
X2.4606Y-2.313
X2.4606Y-2.6575
X2.4606Y-2.7559
X2.4606Y-2.8543
X2.4606Y-2.9528
X2.5Y-2.2244
X2.5354Y-3.2441
X2.5354Y-3.0866
X2.5354Y-3.0236
X2.5354Y-3.0551
X2.5354Y-3.1181
X2.5354Y-3.1811
X2.5354Y-3.2126
X2.5354Y-3.2756
X2.5354Y-3.1496
X2.5591Y-2.6575
X2.5591Y-2.7559
X2.5591Y-2.9528
X2.5591Y-4.3307
X2.56Y-3.4449
X2.56Y-3.5433
X2.56Y-3.6417
X2.5984Y-2.4016
X2.5984Y-3.3465
X2.6575Y-2.3524
X2.6575Y-3.4449
X2.6575Y-3.5433
X2.6575Y-3.6417
X2.6772Y-2.4705
X2.6789Y-2.5197
X2.6789Y-2.5689
X2.6929Y-3.4647
X2.7244Y-3.4648
X2.7461Y-2.4705
X2.7559Y-3.4646
X2.7559Y-3.0512
X2.7559Y-3.1496
X2.7559Y-3.248
X2.7585Y-2.7585
X2.7638Y-2.8268
X2.7874Y-3.4646
X2.815Y-2.4705
X2.815Y-2.5394
X2.815Y-2.8267
X2.8189Y-3.4646
X2.8248Y-2.7585
X2.8504Y-3.4646
X2.8543Y-3.248
X2.8548Y-2.8272
X2.8819Y-3.4646
X2.9035Y-2.4705
X2.9035Y-2.5394
X2.9043Y-2.7559
X2.9134Y-3.4646
X2.9134Y-3.8484
X2.9429Y-2.7559
X2.9449Y-3.4646
X2.9528Y-2.3622
X2.9528Y-3.0512
X2.9528Y-3.248
X2.9764Y-3.4646
X3.002Y-2.4705
X3.002Y-2.5394
X3.0118Y-3.1201
X3.0157Y-3.4646
X3.0512Y-3.4449
X3.0512Y-3.5433
X3.061Y-2.4705
X3.061Y-2.5394
X3.1201Y-2.4705
X3.1201Y-2.5394
X3.1201Y-2.6476
X3.1201Y-2.7362
X3.1496Y-3.5433
X3.1496Y-4.3307
X3.1732Y-3.2441
X3.1732Y-3.2756
X3.1732Y-3.3071
X3.1791Y-2.4311
X3.2087Y-2.126
X3.248Y-2.0965
X3.248Y-2.874
X3.248Y-3.248
X3.248Y-3.3465
X3.3268Y-3.125
X3.3465Y-2.5591
X3.3465Y-3.3465
X3.3465Y-3.8386
X3.3465Y-4.3307
X3.3858Y-2.8248
X3.4449Y-2.4803
X3.4449Y-2.9232
X3.4449Y-3.5433
X3.5138Y-2.7067
X3.5433Y-3.248
X3.5433Y-4.3307
X3.6417Y-3.248
X3.6417Y-3.3465
X3.6811Y-2.6969
X3.7402Y-2.3228
X3.7402Y-2.6772
X3.7402Y-2.7559
X3.7402Y-3.248
X3.7402Y-3.3465
X3.7402Y-3.937
X3.7402Y-4.3307
X3.8386Y-3.6417
X3.937Y-2.8543
X3.937Y-2.9528
X3.937Y-3.3465
X3.937Y-3.7402
X4.0354Y-3.7402
X4.1339Y-2.6575
X4.1339Y-2.8543
X4.1339Y-2.9528
X4.1339Y-3.3465
X4.2323Y-3.7402
X4.3307Y-2.6575
X4.3307Y-2.9528
X4.3307Y-3.0512
X4.3307Y-3.3465
X4.3307Y-3.7402
X4.4291Y-3.6417
X4.5276Y-2.7343
X4.5276Y-2.7756
X4.5276Y-3.1102
X4.5276Y-3.3465
X4.5276Y-3.937
X4.5276Y-4.3307
X4.5669Y-2.8248
X4.5669Y-2.3031
X4.5669Y-3.0906
X4.5965Y-2.2539
X4.5965Y-2.5591
X4.7244Y-4.3307
X4.7343Y-2.5295
X4.7343Y-2.6181
X4.7933Y-2.5295
X4.7933Y-2.6181
X4.9213Y-2.0866
X4.9213Y-3.8386
X4.9213Y-4.3307
X4.9508Y-2.4508
X4.9508Y-2.5295
X5.0197Y-2.4508
X5.0197Y-2.5295
X5.0689Y-2.9331
X5.0866Y-3.2441
X5.0866Y-3.2756
X5.0866Y-3.3071
X5.0984Y-2.2441
X5.0988Y-2.3711
X5.1033Y-2.4508
X5.1181Y-1.998
X5.1181Y-2.0768
X5.1181Y-3.4449
X5.1181Y-4.3307
X5.2165Y-1.998
X5.2165Y-3.4449
X5.2165Y-3.7402
X5.252Y-3.4646
X5.2835Y-3.4646
X5.315Y-3.4646
X5.315Y-2.9606
X5.315Y-2.6575
X5.315Y-3.248
X5.315Y-3.6417
X5.315Y-3.7402
X5.3465Y-3.4646
X5.378Y-3.4646
X5.3937Y-2.9724
X5.4094Y-3.4646
X5.4134Y-2.6575
X5.4134Y-3.248
X5.4409Y-3.4646
X5.4429Y-2.9724
X5.4724Y-3.4646
X5.5039Y-3.4646
X5.5118Y-2.126
X5.5118Y-2.6575
X5.5118Y-3.0512
X5.5118Y-3.1496
X5.5118Y-3.248
X5.5315Y-3.8976
X5.5354Y-3.4646
X5.5669Y-3.4646
X5.6102Y-2.6575
X5.6102Y-2.8543
X5.6102Y-3.4449
X5.6102Y-3.6417
X5.6102Y-3.7402
X5.7087Y-3.4449
X5.7087Y-3.6417
X5.7087Y-2.3622
X5.7087Y-2.5591
X5.7087Y-2.6575
X5.7087Y-2.8543
X5.7087Y-2.9528
X5.7087Y-4.3307
X5.7333Y-3.3071
X5.7402Y-3.0551
X5.7402Y-3.0236
X5.7402Y-3.0866
X5.7402Y-3.1181
X5.7402Y-3.1496
X5.7402Y-3.1811
X5.7402Y-3.2126
X5.7402Y-3.2441
X5.7402Y-3.2756
X5.7579Y-2.3819
X5.8071Y-2.3228
X5.8071Y-2.9528
X5.9055Y-2.1654
X5.9055Y-2.3622
X5.9055Y-2.5591
X5.9055Y-2.8543
X5.9055Y-2.9528
X5.9055Y-3.0512
X5.9055Y-3.8386
X5.9055Y-4.3307
X6.0039Y-2.9528
X6.0039Y-3.0512
X6.0039Y-3.1496
X6.1024Y-2.0669
X6.1024Y-2.1654
X6.1024Y-2.4262
X6.1024Y-2.5591
X6.1024Y-2.6575
X6.1024Y-4.3307
X6.1024Y-2.3524
X6.2008Y-3.0512
X6.2008Y-3.248
X6.2992Y-2.1654
X6.2992Y-2.3622
X6.2992Y-4.3307
X6.4961Y-2.0669
X6.4961Y-2.2638
X6.4961Y-3.5433
X6.4961Y-3.7402
X6.4961Y-3.937
X6.4961Y-4.1339
X6.4961Y-4.3307
X6.6929Y-3.3465
X6.8012Y-3.248
X6.811Y-3.5433
X6.811Y-3.7402
X6.811Y-3.937
X6.811Y-4.1339
T2
X2.2208Y-3.3035
X2.3622Y-3.3035
X2.3622Y-3.4449
X4.4291Y-3.8386
X4.4291Y-4.2386
X1.8701Y-3.7339
X1.8701Y-4.1339
X1.9685Y-3.4449
X2.1099Y-3.4449
X2.1099Y-3.5863
X4.7798Y-3.3035
X4.9213Y-3.3035
X4.9213Y-3.4449
X4.0354Y-3.537
X4.0354Y-3.937
X3.4843Y-2.1654
X3.6843Y-2.1654
X4.2323Y-3.537
X4.2323Y-3.937
X6.3878Y-3.7402
X6.3878Y-4.1402
X3.8386Y-3.8386
X3.8386Y-4.2386
X5.9055Y-3.4449
X6.0469Y-3.3035
X6.0469Y-3.4449
X6.1578Y-3.5863
X6.2992Y-3.4449
X6.2992Y-3.5863
X3.3465Y-3.4449
X3.4879Y-3.3035
X3.4879Y-3.4449
X6.5945Y-3.7402
X6.5945Y-4.1402
X3.5987Y-3.5863
X3.7402Y-3.4449
X3.7402Y-3.5863
X1.6732Y-3.7339
X1.6732Y-4.1339
X4.5276Y-3.4449
X4.669Y-3.4449
X4.669Y-3.5863
T3
X3.0948Y-3.8856
X3.1067Y-4.0182
X3.1405Y-3.7806
X3.1705Y-4.1179
X3.2243Y-3.7106
X3.2747Y-4.1816
X3.3465Y-3.682
X3.4103Y-4.1828
X3.4637Y-3.7116
X3.5176Y-4.1278
X3.5465Y-3.782
X3.5874Y-4.0218
X3.5965Y-3.887
X5.6538Y-3.8856
X5.6658Y-4.0182
X5.6995Y-3.7806
X5.7296Y-4.1179
X5.7833Y-3.7106
X5.8338Y-4.1816
X5.9055Y-3.682
X5.9693Y-4.1828
X6.0228Y-3.7116
X6.0767Y-4.1278
X6.1055Y-3.782
X6.1465Y-4.0218
X6.1555Y-3.887
X6.6142Y-2.4803
X6.6142Y-2.6378
X6.6142Y-2.7953
X2.1105Y-3.8856
X2.1225Y-4.0182
X2.1562Y-3.7806
X2.1863Y-4.1179
X2.24Y-3.7106
X2.2905Y-4.1816
X2.3622Y-3.682
X2.426Y-4.1828
X2.4794Y-3.7116
X2.5334Y-4.1278
X2.5622Y-3.782
X2.6031Y-4.0218
X2.6122Y-3.887
X4.6696Y-3.8856
X4.6815Y-4.0182
X4.7153Y-3.7806
X4.7453Y-4.1179
X4.7991Y-3.7106
X4.8495Y-4.1816
X4.9213Y-3.682
X4.9851Y-4.1828
X5.0385Y-3.7116
X5.0924Y-4.1278
X5.1213Y-3.782
X5.1622Y-4.0218
X5.1713Y-3.887
T4
X5.3346Y-4.4094
X5.5118Y-4.4094
X2.7559Y-4.4094
X2.9331Y-4.4094
X4.0551Y-4.4094
X4.2323Y-4.4094
T5
X3.8815Y-2.1654
X3.9815Y-2.1654
X4.0815Y-2.1654
X4.1815Y-2.1654
X4.2815Y-2.1654
X4.3815Y-2.1654
T6
X4.8917Y-2.6476
X4.8917Y-2.8248
X5.1476Y-2.6476
X5.1476Y-2.8248
T7
X6.5453Y-2.4016
X6.5453Y-2.874
X6.7815Y-2.4016
X6.7815Y-2.874
T8
X5.285Y-4.3114
X5.561Y-4.3114
X2.7063Y-4.3114
X2.9823Y-4.3114
X4.0055Y-4.3114
X4.2815Y-4.3114
T0
M30
